<svg id="Ebene_1" data-name="Ebene 1" xmlns="http://www.w3.org/2000/svg" xmlns:xlink="http://www.w3.org/1999/xlink" viewBox="0 0 1024 1024"><defs><style>.cls-1{fill:url(#Unbenannter_Verlauf_2);}.cls-2{fill:#9d9d9c;}.cls-3{fill:#fff;}</style><linearGradient id="Unbenannter_Verlauf_2" x1="80.04" y1="504.85" x2="912.1" y2="504.85" gradientTransform="matrix(1, 0, 0, -1, 0, 1026)" gradientUnits="userSpaceOnUse"><stop offset="0" stop-color="#5fb98d"/><stop offset="0.21" stop-color="#5db98e"/><stop offset="0.29" stop-color="#57b893"/><stop offset="0.34" stop-color="#4cb79c"/><stop offset="0.39" stop-color="#39b5a8"/><stop offset="0.4" stop-color="#30b5ac"/><stop offset="0.81" stop-color="#30b5ac"/><stop offset="0.81" stop-color="#39b5a8"/><stop offset="0.83" stop-color="#4cb79c"/><stop offset="0.86" stop-color="#57b893"/><stop offset="0.9" stop-color="#5db98e"/><stop offset="1" stop-color="#5fb98d"/></linearGradient></defs><title>Zeichenfläche 1</title><path class="cls-1" d="M519.93,494.3a4.7,4.7,0,1,1,4.69,4.67A4.68,4.68,0,0,1,519.93,494.3Zm4.73,13.87a4.49,4.49,0,1,0,4.53,4.45A4.51,4.51,0,0,0,524.66,508.17Zm-17.5-12.83a4.71,4.71,0,1,0,4.66,4.67A4.68,4.68,0,0,0,507.16,495.34Zm6.55-20.28a4.38,4.38,0,1,0,4.39,4.37A4.39,4.39,0,0,0,513.71,475.06ZM540,479.32a4.66,4.66,0,1,0-4.59,4.71A4.68,4.68,0,0,0,540,479.32Zm6.57,20.51a4.43,4.43,0,0,0-4.45-4.35,4.38,4.38,0,1,0,0,8.76A4.41,4.41,0,0,0,546.55,499.83ZM524.8,536.15a5.11,5.11,0,1,0-5.08-5.08A5.05,5.05,0,0,0,524.8,536.15Zm-21.7-16.33a4.32,4.32,0,1,0,0,8.64,4.32,4.32,0,1,0,0-8.64Zm-13.39-18.26a4.28,4.28,0,0,0,0,8.55,4.28,4.28,0,0,0,0-8.55Zm-.08-14.19a4.28,4.28,0,0,0,0-8.56,4.28,4.28,0,0,0,0,8.56Zm17.75-22.77a4.54,4.54,0,0,0-4.61-4.5,4.55,4.55,0,0,0,.05,9.09A4.56,4.56,0,0,0,507.38,464.6Zm17-2.73a4.37,4.37,0,1,0-4.35-4.34A4.34,4.34,0,0,0,524.42,461.87Zm17.29,2.55A4.38,4.38,0,1,0,546,460,4.38,4.38,0,0,0,541.71,464.42ZM559.56,487a4.29,4.29,0,0,0,0-8.57,4.29,4.29,0,1,0,0,8.57Zm4.34,18.43a4.29,4.29,0,0,0-8.57,0,4.29,4.29,0,1,0,8.57,0Zm-17.53,23a4.54,4.54,0,1,0-4.46-4.48A4.51,4.51,0,0,0,546.37,528.45Zm-21.51,15.89a5.09,5.09,0,0,0,0,10.18,5.09,5.09,0,0,0,0-10.18Zm-22.46-4.16a4.6,4.6,0,0,0,.06,9.2,4.6,4.6,0,0,0-.06-9.2ZM483.75,526a5.41,5.41,0,0,0,.05,10.82,5.41,5.41,0,1,0-.05-10.82Zm-6.94-14.44a4.57,4.57,0,1,0-4.58,4.59A4.56,4.56,0,0,0,476.81,511.56Zm-7.06-17.32a5.45,5.45,0,1,0-5.48-5.42A5.44,5.44,0,0,0,469.75,494.24Zm11.32-27.34a4.38,4.38,0,1,0-4.33,4.43A4.38,4.38,0,0,0,481.07,466.9Zm10.86-21.82a4.74,4.74,0,0,0,0,9.47,4.74,4.74,0,1,0,0-9.47ZM512.82,436a4.39,4.39,0,0,0,0,8.77,4.39,4.39,0,1,0,0-8.77Zm23,9.37a5.09,5.09,0,1,0-5.21-5.09A5.14,5.14,0,0,0,535.87,445.36Zm25.53,4.08a4.63,4.63,0,1,0-4.52,4.61A4.63,4.63,0,0,0,561.4,449.44Zm10.89,22.46a5.45,5.45,0,1,0-.06-10.9,5.45,5.45,0,1,0,.06,10.9Zm7.13,20.9a4.6,4.6,0,1,0-4.56-4.55A4.62,4.62,0,0,0,579.42,492.8ZM581.91,511a4.77,4.77,0,0,0-4.83-4.76,4.79,4.79,0,1,0,0,9.58A4.74,4.74,0,0,0,581.91,511ZM570.27,531a4.49,4.49,0,1,0-4.45,4.5A4.48,4.48,0,0,0,570.27,531ZM552,544.5a4.73,4.73,0,1,0-4.74,4.78A4.7,4.7,0,0,0,552,544.5ZM525,563a4.77,4.77,0,0,0,0,9.54,4.77,4.77,0,1,0,0-9.54Zm-27.83,1.35a5.13,5.13,0,0,0,10.25,0,5.19,5.19,0,0,0-5.17-5.16A5.13,5.13,0,0,0,497.12,564.39Zm-15.47-15.92a5.54,5.54,0,1,0,5.58,5.54A5.57,5.57,0,0,0,481.65,548.47Zm-16.36-16.1a5.47,5.47,0,1,0,5.52,5.42A5.53,5.53,0,0,0,465.29,532.37Zm-5-15a5.53,5.53,0,1,0-5.53,5.52A5.5,5.5,0,0,0,460.28,517.34Zm-9.21-17.18a5.51,5.51,0,1,0-5.51-5.47A5.52,5.52,0,0,0,451.07,500.16Zm8.22-28.28a4.79,4.79,0,0,0-9.57.06,4.79,4.79,0,1,0,9.57-.06Zm5.58-16.14a4.39,4.39,0,1,0,0-8.77,4.39,4.39,0,0,0,0,8.77ZM486.05,435a5,5,0,1,0-5,5A5,5,0,0,0,486.05,435Zm15.48-5.42a5.11,5.11,0,1,0-5.13-5.09A5.14,5.14,0,0,0,501.53,429.55Zm22.7-3.68a5.15,5.15,0,1,0-.05-10.29,5.15,5.15,0,1,0,.05,10.29Zm27.9-1.69a5.17,5.17,0,1,0-5.16,5.19A5.19,5.19,0,0,0,552.13,424.18ZM567.53,440a5.51,5.51,0,1,0-5.54-5.47A5.48,5.48,0,0,0,567.53,440Zm22,10.67a5.65,5.65,0,1,0-5.57,5.66A5.62,5.62,0,0,0,589.53,450.71Zm5,26A5.49,5.49,0,1,0,589,471.2,5.51,5.51,0,0,0,594.48,476.66Zm9.09,17.2a5.41,5.41,0,0,0-10.81.06,5.35,5.35,0,0,0,5.4,5.37A5.41,5.41,0,0,0,603.57,493.86ZM594.71,522a5.35,5.35,0,1,0-5.36-5.31A5.35,5.35,0,0,0,594.71,522Zm-6,15.21a4.35,4.35,0,0,0-4.35-4.35,4.38,4.38,0,1,0,0,8.75A4.33,4.33,0,0,0,588.71,537.18ZM568.16,558.5a5,5,0,1,0-4.95-4.9A4.94,4.94,0,0,0,568.16,558.5Zm-20.45,10.69a5.09,5.09,0,1,0-5.1-5A5,5,0,0,0,547.71,569.19Zm-22.62,22.4a5.39,5.39,0,1,0-5.43-5.35A5.39,5.39,0,0,0,525.09,591.59ZM502.2,578.11a5.32,5.32,0,1,0,5.35,5.32A5.35,5.35,0,0,0,502.2,578.11Zm-21.46-8.74a5.7,5.7,0,1,0,5.74,5.66A5.71,5.71,0,0,0,480.74,569.37ZM462,556.13a5.51,5.51,0,1,0,5.55,5.45A5.49,5.49,0,0,0,462,556.13ZM447.21,538.2a5.73,5.73,0,1,0,.06,11.46,5.73,5.73,0,0,0-.06-11.46Zm-4.13-15.07a5.77,5.77,0,1,0-5.72,5.78A5.78,5.78,0,0,0,443.08,523.13ZM432.91,506a5.52,5.52,0,0,0-.06-11,5.52,5.52,0,1,0,.06,11Zm1.26-33.36a4.84,4.84,0,1,0,4.88,4.81A4.84,4.84,0,0,0,434.17,472.68Zm11.71-17.17a4.68,4.68,0,0,0-9.35,0,4.68,4.68,0,1,0,9.35,0Zm7.5-24.71a5.25,5.25,0,1,0,5.35,5.21A5.27,5.27,0,0,0,453.38,430.8Zm16.82-5.54a5.09,5.09,0,1,0-5.1-5A5.06,5.06,0,0,0,470.2,425.26Zm25.25-16.32a5.11,5.11,0,1,0-5.08,5.14A5.12,5.12,0,0,0,495.45,408.94Zm17.1-10.62a4.8,4.8,0,1,0,4.84,4.78A4.8,4.8,0,0,0,512.55,398.32Zm23.07-.12a4.8,4.8,0,1,0,4.8,4.78A4.76,4.76,0,0,0,535.62,398.2Zm28.08,10.39a5.71,5.71,0,1,0-5.65,5.72A5.66,5.66,0,0,0,563.7,408.59Zm14.61,16.68a5.66,5.66,0,1,0-5.69-5.61A5.67,5.67,0,0,0,578.31,425.27Zm16.84,15.59a5.57,5.57,0,1,0-5.56-5.53A5.56,5.56,0,0,0,595.15,440.86Zm12.46,19.52a5.7,5.7,0,1,0-5.7-5.68A5.71,5.71,0,0,0,607.61,460.38Zm12.66,16.15a5.45,5.45,0,0,0-5.51-5.35,5.4,5.4,0,1,0,.06,10.79A5.46,5.46,0,0,0,620.27,476.53Zm-3.83,27.9a4.85,4.85,0,1,0-4.84-4.84A4.83,4.83,0,0,0,616.44,504.43Zm-4.2,23.3a5.5,5.5,0,0,0,0-11,5.5,5.5,0,1,0,0,11Zm-5.1,15.39a4.67,4.67,0,1,0-4.63,4.71A4.7,4.7,0,0,0,607.14,543.12Zm-19.22,23a5.23,5.23,0,0,0,0-10.45,5.23,5.23,0,0,0,0,10.45Zm-18.6,13.55a5.11,5.11,0,1,0-5.09-5.08A5.09,5.09,0,0,0,569.32,579.72ZM548,588.32a5.11,5.11,0,1,0-5.15-5.08A5.15,5.15,0,0,0,548,588.32Zm-22.87,10.87a5.4,5.4,0,1,0,.06,10.79,5.4,5.4,0,0,0-.06-10.79Zm-22.91-2.37a5.48,5.48,0,1,0,5.51,5.44A5.48,5.48,0,0,0,502.22,596.82Zm-22-7.25a5.73,5.73,0,1,0,5.77,5.67A5.71,5.71,0,0,0,480.21,589.57Zm-20-11.23a5.52,5.52,0,1,0,0,11,5.52,5.52,0,0,0,0-11Zm-17.29-15.43a5.64,5.64,0,0,0-5.61,5.63,5.71,5.71,0,0,0,5.67,5.61,5.62,5.62,0,0,0-.06-11.24Zm-13.6-7.55a5.41,5.41,0,1,0-.06-10.82,5.41,5.41,0,0,0,.06,10.82ZM425.6,528.9a5.75,5.75,0,1,0-5.72,5.78A5.76,5.76,0,0,0,425.6,528.9ZM415,512.09a5.72,5.72,0,0,0-.07-11.44,5.72,5.72,0,1,0,.07,11.44Zm-5.46-28.76a5.32,5.32,0,1,0,5.28-5.3A5.34,5.34,0,0,0,409.5,483.33ZM424,460.72a4.55,4.55,0,1,0-4.51,4.6A4.55,4.55,0,0,0,424,460.72Zm4.73-16.16a4.95,4.95,0,1,0-4.95-4.93A4.93,4.93,0,0,0,428.77,444.56ZM437,420.89a5.22,5.22,0,1,0,5.16-5.2A5.21,5.21,0,0,0,437,420.89Zm27.9-15.56a5.63,5.63,0,1,0-5.56,5.68A5.67,5.67,0,0,0,464.92,405.33Zm14.29-6.52a5.1,5.1,0,1,0-5.14-5.05A5.12,5.12,0,0,0,479.21,398.81Zm21.94-6.63a5.72,5.72,0,1,0-5.74-5.67A5.73,5.73,0,0,0,501.15,392.18Zm22.89-2.7a5.52,5.52,0,1,0-.06-11,5.52,5.52,0,0,0,.06,11Zm23,2.27a5.5,5.5,0,1,0-5.59-5.48A5.5,5.5,0,0,0,547.05,391.75ZM569,399a5.71,5.71,0,0,0,0-11.42A5.71,5.71,0,1,0,569,399Zm20,11.42a5.71,5.71,0,1,0-5.73-5.68A5.68,5.68,0,0,0,589,410.39Zm17.22,15.23A5.6,5.6,0,1,0,600.6,420,5.6,5.6,0,0,0,606.23,425.62Zm19.36,13a5.74,5.74,0,0,0-5.81-5.66,5.69,5.69,0,0,0,.05,11.38A5.74,5.74,0,0,0,625.59,438.58Zm3.83,26.81a5.77,5.77,0,1,0-5.77-5.71A5.69,5.69,0,0,0,629.42,465.39Zm4.83,11.33a5.45,5.45,0,1,0,.06,10.89,5.45,5.45,0,1,0-.06-10.89Zm.12,23.2a5.31,5.31,0,1,0,5.32,5.29A5.32,5.32,0,0,0,634.37,499.92Zm-.08,27.88a4.61,4.61,0,0,0-4.57-4.6,4.69,4.69,0,0,0-4.61,4.66,4.62,4.62,0,0,0,4.66,4.51A4.55,4.55,0,0,0,634.29,527.8Zm-13.87,25.91a4.79,4.79,0,1,0-4.76-4.77A4.77,4.77,0,0,0,620.42,553.71Zm-8.86,13.92a4.57,4.57,0,1,0-4.57,4.55A4.5,4.5,0,0,0,611.56,567.63ZM590,588.84a5.67,5.67,0,1,0-.07-11.33,5.67,5.67,0,1,0,.07,11.33Zm-19.88,11.08a5.11,5.11,0,1,0-5.14-5.08A5.06,5.06,0,0,0,570.07,599.92Zm-21.91,7.84a5.71,5.71,0,1,0-5.73-5.67A5.71,5.71,0,0,0,548.16,607.76Zm-22.94,9.4a5.81,5.81,0,0,0,.07,11.62,5.81,5.81,0,1,0-.07-11.62Zm-28.57,3.91a5.64,5.64,0,0,0,5.69,5.64,5.71,5.71,0,1,0-5.69-5.64ZM480,609a6,6,0,1,0,.06,11.94A6,6,0,0,0,480,609Zm-20.88-9.61a5.69,5.69,0,1,0,5.73,5.63A5.66,5.66,0,0,0,459.14,599.41Zm-18.78-12.2a4.46,4.46,0,0,0-4.3,4.47,4.36,4.36,0,1,0,8.72,0A4.43,4.43,0,0,0,440.36,587.21Zm-16-17.78a5.59,5.59,0,1,0,.06,11.18,5.59,5.59,0,1,0-.06-11.18Zm-7-13.6a5.73,5.73,0,0,0-11.45.06,5.73,5.73,0,0,0,11.45-.06Zm-8.59-21.17a6.3,6.3,0,0,0-12.59.05,6.3,6.3,0,0,0,12.59-.05Zm-11.55-16.72a5.72,5.72,0,1,0-5.73-5.68A5.72,5.72,0,0,0,397.15,517.94ZM396,494.41a5.25,5.25,0,1,0-5.28-5.24A5.28,5.28,0,0,0,396,494.41ZM399,461a5.31,5.31,0,1,0,5.27,5.27A5.28,5.28,0,0,0,399,461Zm12.15-16.72a5.13,5.13,0,1,0-5.12,5.15A5.11,5.11,0,0,0,411.11,444.26Zm.95-20.33a4.77,4.77,0,0,0,4.83,4.73,4.74,4.74,0,0,0-.05-9.47A4.77,4.77,0,0,0,412.06,423.93Zm14.59-18.09a4.49,4.49,0,1,0,4.44-4.51A4.47,4.47,0,0,0,426.65,405.84Zm26.5-15.32a4.79,4.79,0,1,0-4.74,4.8A4.78,4.78,0,0,0,453.15,390.52Zm15-6.26a5.65,5.65,0,1,0-5.7-5.65A5.6,5.6,0,0,0,468.19,384.26Zm21.6-8.17a5.72,5.72,0,1,0-5.82-5.67A5.69,5.69,0,0,0,489.79,376.09Zm22.57-15.32a5.37,5.37,0,1,0,5.44,5.32A5.42,5.42,0,0,0,512.36,360.77Zm23.07,0a5.27,5.27,0,1,0,5.33,5.24A5.29,5.29,0,0,0,535.43,360.75ZM558.23,376a6,6,0,1,0-6-6A6,6,0,0,0,558.23,376ZM579.91,384a6,6,0,0,0-.07-11.91,6,6,0,1,0,.07,11.91Zm19.77,10.17a4.38,4.38,0,1,0-.06-8.75,4.38,4.38,0,0,0,.06,8.75Zm17.58,16.3a5.6,5.6,0,1,0-5.67-5.56A5.57,5.57,0,0,0,617.26,410.43Zm14.4,18.05a5.66,5.66,0,1,0-5.69-5.67A5.66,5.66,0,0,0,631.66,428.48ZM649,443a6.27,6.27,0,1,0-6.24,6.31A6.28,6.28,0,0,0,649,443Zm.94,15.68a6.28,6.28,0,1,0,6.31,6.22A6.3,6.3,0,0,0,649.91,458.7Zm3.22,23.47a5.66,5.66,0,0,0,0,11.31,5.68,5.68,0,0,0,5.64-5.72A5.62,5.62,0,0,0,653.13,482.17Zm4.39,28.69a5.28,5.28,0,1,0-5.24,5.32A5.28,5.28,0,0,0,657.52,510.86Zm-10.26,27.88a5.33,5.33,0,1,0-5.39-5.31A5.34,5.34,0,0,0,647.26,538.74Zm-9,20.64a4.7,4.7,0,1,0-4.71-4.68A4.71,4.71,0,0,0,638.29,559.38Zm-12.63,19.41a4.8,4.8,0,1,0-4.81-4.79A4.83,4.83,0,0,0,625.66,578.79Zm-11.09,12a4.79,4.79,0,1,0-4.75,4.8A4.78,4.78,0,0,0,614.57,590.74ZM591.26,610.1a5.68,5.68,0,0,0,0-11.36,5.68,5.68,0,1,0,0,11.36Zm-20.75,9.95a5.52,5.52,0,1,0-5.56-5.51A5.54,5.54,0,0,0,570.51,620.05Zm-22.25,5.83a5.09,5.09,0,1,0,0-10.17,5.09,5.09,0,0,0,0,10.17Zm-28.8,15.52a5.94,5.94,0,0,0,11.87,0,5.94,5.94,0,1,0-11.87,0Zm-17,4.32a6,6,0,1,0-6.11-6.06A6,6,0,0,0,502.44,645.72Zm-22.56-17.23a5.93,5.93,0,1,0,6,5.9A6,6,0,0,0,479.88,628.49Zm-21.38-8.24a5.49,5.49,0,0,0-5.45,5.43,5.42,5.42,0,1,0,5.45-5.43ZM438.8,618a4.33,4.33,0,1,0-4.38-4.28A4.32,4.32,0,0,0,438.8,618Zm-17.71-24.84a5.63,5.63,0,1,0,.06,11.26,5.63,5.63,0,0,0-.06-11.26Zm-15-6a5.83,5.83,0,1,0-5.81-5.82A5.81,5.81,0,0,0,406.08,587.19Zm-6.49-25.47a5.73,5.73,0,1,0-5.72,5.72A5.7,5.7,0,0,0,399.59,561.72ZM384.93,546a5.54,5.54,0,1,0-5.57-5.52A5.51,5.51,0,0,0,384.93,546Zm-5.49-22.38a5.56,5.56,0,1,0-5.58-5.53A5.57,5.57,0,0,0,379.44,523.62Zm-1.95-22.92a5.66,5.66,0,1,0-.05-11.31,5.66,5.66,0,0,0,.05,11.31ZM373.93,472a5.26,5.26,0,1,0,5.23-5.32A5.26,5.26,0,0,0,373.93,472Zm15.2-22.51a4.67,4.67,0,1,0-4.67,4.71A4.68,4.68,0,0,0,389.13,449.52Zm8.72-21.37a4.68,4.68,0,1,0-4.67,4.69A4.7,4.7,0,0,0,397.85,428.15Zm7.32-14.72a5,5,0,0,0-.05-10,5,5,0,0,0,.05,10Zm19.64-22.65a4.79,4.79,0,1,0-4.75,4.84A4.82,4.82,0,0,0,424.81,390.78Zm8-15a4.77,4.77,0,1,0,9.53-.05,4.77,4.77,0,1,0-9.53.05Zm30.28-12.22a5.93,5.93,0,1,0-5.86,6A5.92,5.92,0,0,0,463.05,363.53Zm15.38-14.44a5.51,5.51,0,1,0,5.47,5.49A5.53,5.53,0,0,0,478.43,349.09Zm22.5,5.54a5.52,5.52,0,1,0-5.6-5.53A5.53,5.53,0,0,0,500.93,354.63Zm22.91-2.09a5.36,5.36,0,1,0-5.32-5.34A5.36,5.36,0,0,0,523.84,352.54Zm23,2.29a6,6,0,1,0-6-5.94A6,6,0,0,0,546.88,354.83Zm22.42-6.57a5.87,5.87,0,1,0,.07,11.74,5.87,5.87,0,0,0-.07-11.74Zm21.44,20a5.36,5.36,0,1,0-5.39-5.33A5.35,5.35,0,0,0,590.74,368.22Zm19.74,10.9a4.32,4.32,0,1,0-4.33-4.28A4.28,4.28,0,0,0,610.48,379.12Zm17.6,16.48a5.88,5.88,0,1,0-5.86-5.85A5.83,5.83,0,0,0,628.08,395.6Zm15.09,17.32a5.76,5.76,0,1,0-5.76-5.72A5.72,5.72,0,0,0,643.17,412.92ZM661,426.76a5.71,5.71,0,1,0-5.68,5.74A5.71,5.71,0,0,0,661,426.76Zm3.25,26.87a5.56,5.56,0,1,0-5.59-5.53A5.54,5.54,0,0,0,664.28,453.63Zm-.06,16.89a5.57,5.57,0,1,0,5.53-5.57A5.56,5.56,0,0,0,664.22,470.52Zm13,23a5.5,5.5,0,1,0-5.49,5.53A5.52,5.52,0,0,0,677.22,493.48Zm-1.9,23a5.3,5.3,0,1,0-5.27,5.32A5.32,5.32,0,0,0,675.32,516.51Zm-10.57,27.81a5.31,5.31,0,1,0-5.28-5.31A5.29,5.29,0,0,0,664.75,544.32Zm-4,16a4.7,4.7,0,1,0-4.68,4.71A4.7,4.7,0,0,0,660.72,560.35ZM644.08,585.1a5,5,0,1,0-5-5A5,5,0,0,0,644.08,585.1Zm-10.32,12.6a4.59,4.59,0,0,0-9.17,0,4.59,4.59,0,1,0,9.17,0Zm-22,19.91a4.79,4.79,0,0,0,0-9.58,4.79,4.79,0,0,0,0,9.58Zm-19.6,13.55a6.18,6.18,0,1,0-6.27-6.18A6.2,6.2,0,0,0,592.12,631.16Zm-21.28,8.41a5.65,5.65,0,1,0-5.7-5.59A5.61,5.61,0,0,0,570.84,639.57ZM548.41,645a5.52,5.52,0,1,0-5.56-5.45A5.5,5.5,0,0,0,548.41,645Zm-22.92,21a6.18,6.18,0,1,0-6.16-6.2A6.17,6.17,0,0,0,525.49,666Zm-23.07-1.56a6.13,6.13,0,1,0-6.07-6.1A6.08,6.08,0,0,0,502.42,664.39Zm-22.58-16.61a5.81,5.81,0,1,0,.06,11.61,5.81,5.81,0,0,0-.06-11.61Zm-21.77-7.46a5.48,5.48,0,1,0,5.48,5.44A5.48,5.48,0,0,0,458.07,640.32Zm-20.48-10.76a5.51,5.51,0,0,0,.05,11,5.51,5.51,0,1,0-.05-11Zm-18.71-13.12a5.16,5.16,0,1,0,.06,10.32,5.16,5.16,0,0,0-.06-10.32Zm-16.68-16.5a5.7,5.7,0,1,0,5.74,5.67A5.66,5.66,0,0,0,402.2,599.94Zm-8.52-12.48a5.8,5.8,0,1,0-5.7,5.9A5.85,5.85,0,0,0,393.68,587.46Zm-11.84-19.91a5.59,5.59,0,0,0-11.17.07,5.56,5.56,0,0,0,5.59,5.51A5.63,5.63,0,0,0,381.84,567.55Zm-14.3-16.11a5.21,5.21,0,1,0-5.29-5.19A5.21,5.21,0,0,0,367.54,551.44ZM361.83,529a5.19,5.19,0,1,0-5.22-5.15A5.17,5.17,0,0,0,361.83,529Zm-2.53-23a5.1,5.1,0,0,0-.05-10.19A5.1,5.1,0,0,0,359.3,506Zm.71-23a5.16,5.16,0,0,0-.06-10.32A5.16,5.16,0,1,0,360,483Zm-1.23-27.88a5,5,0,1,0,5-5.07A5,5,0,0,0,358.78,455.11Zm12-27a4.95,4.95,0,1,0,5.07,4.91A5,5,0,0,0,370.76,428.15Zm5.17-15.85a4.92,4.92,0,0,0,5,4.94,4.95,4.95,0,1,0-.05-9.89A4.88,4.88,0,0,0,375.93,412.3Zm13.36-19.21a4.34,4.34,0,1,0,4.3-4.37A4.34,4.34,0,0,0,389.29,393.09Zm14.89-17.23A4.87,4.87,0,1,0,409,371,4.85,4.85,0,0,0,404.18,375.86Zm17-14.95a5.47,5.47,0,1,0,5.42-5.45A5.45,5.45,0,0,0,421.15,360.91Zm25-18.26a5.91,5.91,0,1,0,.07,11.81,5.91,5.91,0,0,0-.07-11.81Zm21,2.11a5.71,5.71,0,1,0-5.74-5.67A5.71,5.71,0,0,0,467.19,344.76Zm22.18-6.41a5.77,5.77,0,1,0-5.77-5.73A5.8,5.8,0,0,0,489.37,338.35Zm22.8-14.81a5.7,5.7,0,1,0,5.73,5.65A5.69,5.69,0,0,0,512.17,323.54Zm23.19,11.68a6.08,6.08,0,1,0-6.16-6.07A6.09,6.09,0,0,0,535.36,335.22Zm22.83,3a6,6,0,1,0-6.05-6A6,6,0,0,0,558.19,338.26ZM580.38,333a5.51,5.51,0,1,0,5.47,5.48A5.51,5.51,0,0,0,580.38,333ZM607,347.72a5.5,5.5,0,1,0-5.45,5.53A5.51,5.51,0,0,0,607,347.72Zm14.18,17.92a5.76,5.76,0,0,0-.06-11.52,5.76,5.76,0,1,0,.06,11.52Zm23.41,9a5.66,5.66,0,1,0-5.6,5.67A5.66,5.66,0,0,0,644.61,374.61Zm9.91,22.8a5.7,5.7,0,1,0-5.73-5.68A5.69,5.69,0,0,0,654.52,397.41Zm13,7.14a6.23,6.23,0,1,0,6.22,6.19A6.24,6.24,0,0,0,667.49,404.55Zm15.8,26.9a5.56,5.56,0,1,0-5.53,5.61A5.55,5.55,0,0,0,683.29,431.45Zm-3.87,22a5.56,5.56,0,1,0,5.57-5.59A5.54,5.54,0,0,0,679.42,453.43Zm9.72,28.34a5.66,5.66,0,1,0-5.69-5.64A5.67,5.67,0,0,0,689.14,481.77Zm6,17.37a5.14,5.14,0,1,0-5.11,5.18A5.14,5.14,0,0,0,695.17,499.14Zm-2.47,23a4.94,4.94,0,1,0-4.93,5A5,5,0,0,0,692.7,522.12Zm-10.4,27.51a5,5,0,1,0-5.06-5A5,5,0,0,0,682.3,549.63ZM678.55,566a4.81,4.81,0,1,0-4.8,4.82A4.8,4.8,0,0,0,678.55,566Zm-11.92,20a4.34,4.34,0,0,0-8.68.06,4.34,4.34,0,1,0,8.68-.06ZM648.2,609.21a4.85,4.85,0,1,0-4.87-4.83A4.85,4.85,0,0,0,648.2,609.21Zm-11.74,11.24a4.81,4.81,0,1,0-4.78,4.83A4.83,4.83,0,0,0,636.46,620.45Zm-23.41,18.83a5.08,5.08,0,0,0,5-5.13,5.09,5.09,0,1,0-10.17,0A5.13,5.13,0,0,0,613.05,639.28ZM592.76,650.8a5.71,5.71,0,1,0-5.71-5.67A5.62,5.62,0,0,0,592.76,650.8Zm-21.68,8.09a5.75,5.75,0,1,0,0-11.5,5.75,5.75,0,0,0,0,11.5Zm-22.58,4.89a5.75,5.75,0,1,0-.06-11.5,5.75,5.75,0,0,0,.06,11.5Zm-22.92,20.58a6.22,6.22,0,1,0-6.23-6.2A6.17,6.17,0,0,0,525.58,684.36ZM502.53,683a6.16,6.16,0,1,0-6.17-6.12A6.15,6.15,0,0,0,502.53,683Zm-22.75-16.55a6.19,6.19,0,1,0,6.27,6.17A6.17,6.17,0,0,0,479.78,666.41Zm-22-6.53a5.7,5.7,0,1,0,5.74,5.65A5.68,5.68,0,0,0,457.8,659.88Zm-21-9.74a5.74,5.74,0,0,0,.05,11.47,5.74,5.74,0,1,0-.05-11.47Zm-19.48-12.25a5.68,5.68,0,1,0,.05,11.35,5.58,5.58,0,0,0,5.53-5.66A5.65,5.65,0,0,0,417.32,637.89ZM399.4,623.5a5.46,5.46,0,1,0,5.52,5.45A5.53,5.53,0,0,0,399.4,623.5Zm-15.81-5.59a5.69,5.69,0,1,0-5.78-5.63A5.67,5.67,0,0,0,383.59,617.91ZM376,593.56a6.2,6.2,0,1,0-6.16,6.28A6.18,6.18,0,0,0,376,593.56Zm-11.93-20.14a5.45,5.45,0,1,0-10.89.06,5.45,5.45,0,0,0,10.89-.06Zm-14-16.55a4.85,4.85,0,1,0-4.89-4.83A4.84,4.84,0,0,0,350,556.87Zm-5.91-21.66a5.56,5.56,0,1,0-5.52-5.51A5.52,5.52,0,0,0,344.13,535.21Zm2.15-28.47a5.18,5.18,0,0,0-5.23-5.12,5.16,5.16,0,0,0,.06,10.32A5.2,5.2,0,0,0,346.28,506.74Zm-10.38-23a5.13,5.13,0,1,0,10.26,0,5.16,5.16,0,0,0-5.21-5.13A5.11,5.11,0,0,0,335.9,483.71Zm13-23a5.08,5.08,0,1,0-5.12,5.1A5.11,5.11,0,0,0,348.88,460.73Zm.5-27.41a5.06,5.06,0,1,0,.06,10.11,5.06,5.06,0,0,0-.06-10.11Zm8.46-21.15a4.69,4.69,0,1,0,0,9.37,4.69,4.69,0,0,0,0-9.37Zm10.93-20.44a4.85,4.85,0,1,0,4.91,4.8A4.86,4.86,0,0,0,368.77,391.73Zm9.61-13.91a3.93,3.93,0,1,0,3.93-3.94A3.94,3.94,0,0,0,378.38,377.82Zm15.38-16.91a4.27,4.27,0,1,0,4.23-4.3A4.24,4.24,0,0,0,393.76,360.91Zm22-19.94a5.11,5.11,0,0,0,.06,10.21,5.11,5.11,0,0,0-.06-10.21Zm19.37-12.19a4.84,4.84,0,1,0,4.9,4.83A4.83,4.83,0,0,0,435.12,328.78ZM456,318a5.71,5.71,0,1,0,5.74,5.67A5.66,5.66,0,0,0,456,318Zm21.92-7.46a5.92,5.92,0,1,0,5.94,5.88A5.89,5.89,0,0,0,477.92,310.5Zm22.63-4.44a5.91,5.91,0,1,0,.07,11.81,5.91,5.91,0,0,0-.07-11.81Zm23.11,10.55a6.22,6.22,0,1,0-6.24-6.19A6.19,6.19,0,0,0,523.66,316.61Zm23,1.25a6.13,6.13,0,1,0-.07-12.25,6.13,6.13,0,0,0,.07,12.25Zm22.64-8.08a6.16,6.16,0,1,0,6.23,6.13A6.18,6.18,0,0,0,569.34,309.78Zm22.11,19.1a5.91,5.91,0,1,0-6-5.9A5.92,5.92,0,0,0,591.45,328.88Zm26.61,3.8a5.71,5.71,0,1,0-5.72,5.72A5.72,5.72,0,0,0,618.06,332.68Zm13.81,6.52a5.76,5.76,0,1,0,5.79,5.73A5.75,5.75,0,0,0,631.87,339.2ZM644,359.6a5.82,5.82,0,1,0,5.78-5.84A5.8,5.8,0,0,0,644,359.6Zm16,16.75a5.71,5.71,0,1,0,5.68-5.75A5.68,5.68,0,0,0,660,376.35ZM673.51,395a5.83,5.83,0,0,0,11.65-.05,5.83,5.83,0,0,0-11.65.05Zm22.64,20.13a5.55,5.55,0,1,0-5.55,5.59A5.56,5.56,0,0,0,696.15,415.08Zm-1.79,21.46a4.84,4.84,0,1,0,4.82-4.86A4.82,4.82,0,0,0,694.36,436.54Zm16.22,22.3a5.55,5.55,0,1,0-5.52,5.59A5.55,5.55,0,0,0,710.58,458.84ZM708,476.66a5.11,5.11,0,1,0,5.13,5.08A5.1,5.1,0,0,0,708,476.66Zm5.08,28.16a4.94,4.94,0,1,0-4.9,5A5,5,0,0,0,713.12,504.82Zm-7.7,28a5,5,0,1,0-5.06-5A5.05,5.05,0,0,0,705.42,532.81Zm-5.59,22.41a5,5,0,1,0-5.1-5A5,5,0,0,0,699.83,555.22Zm-3.74,16.47a4.68,4.68,0,1,0-4.69,4.68A4.66,4.66,0,0,0,696.09,571.69ZM680.4,596.82a4.85,4.85,0,1,0-4.87-4.82A4.84,4.84,0,0,0,680.4,596.82Zm-13.47,17.83a3.92,3.92,0,1,0-3.93-3.88A3.86,3.86,0,0,0,666.93,614.65Zm-11.46,13a4.29,4.29,0,1,0-4.26,4.31A4.29,4.29,0,0,0,655.47,627.63Zm-22,20a5.11,5.11,0,1,0-5.09-5.07A5.11,5.11,0,0,0,633.49,647.58ZM614,659.78a4.85,4.85,0,1,0-4.87-4.82A4.82,4.82,0,0,0,614,659.78Zm-20.78,10.79a5.7,5.7,0,1,0-5.75-5.68A5.73,5.73,0,0,0,593.24,670.57Zm-22,7.46a5.92,5.92,0,0,0-.07-11.84,5.92,5.92,0,0,0,.07,11.84Zm-22.67,4.26a5.72,5.72,0,1,0-5.7-5.68A5.75,5.75,0,0,0,548.6,682.29Zm-23,8a6.28,6.28,0,1,0,6.32,6.21A6.27,6.27,0,0,0,525.61,690.28Zm-23.06-1.1a6.18,6.18,0,1,0,6.22,6.12A6.14,6.14,0,0,0,502.55,689.18Zm-22.75-3.6a5.93,5.93,0,1,0,6,5.91A5.94,5.94,0,0,0,479.8,685.58ZM457.6,679a6.12,6.12,0,1,0,6.16,6.07A6.15,6.15,0,0,0,457.6,679Zm-21.33,2.51a5.35,5.35,0,0,0,5.35-5.3,5.29,5.29,0,0,0-5.4-5.22,5.26,5.26,0,0,0,0,10.52ZM416.15,659a6,6,0,1,0,6,6A6.07,6.07,0,0,0,416.15,659Zm-18.82-12.48a5,5,0,1,0,5.06,5A5,5,0,0,0,397.33,646.49ZM380.27,630.8a5.18,5.18,0,0,0,.06,10.36,5.18,5.18,0,0,0-.06-10.36Zm-15.21-6.49a5.69,5.69,0,1,0-.06-11.37,5.69,5.69,0,1,0,.06,11.37Zm-13.12-19a5.64,5.64,0,1,0-5.62-5.62A5.64,5.64,0,0,0,351.94,605.27Zm-5.13-26a5.76,5.76,0,0,0-5.78-5.67,5.71,5.71,0,1,0,.06,11.42A5.76,5.76,0,0,0,346.81,579.22Zm-14.22-15.57a5.87,5.87,0,1,0,0-11.73,5.87,5.87,0,0,0,0,11.73Zm-6-23a5.14,5.14,0,0,0,5.12-5.21,5.08,5.08,0,0,0-5.18-5.08,5.14,5.14,0,0,0-5.15,5.13A5.2,5.2,0,0,0,326.62,540.64ZM323.22,518a5.37,5.37,0,1,0-5.42-5.34A5.36,5.36,0,0,0,323.22,518Zm-6.07-28.46a5.24,5.24,0,1,0,5.2-5.29A5.23,5.23,0,0,0,317.15,489.56ZM329.2,466.5a5,5,0,1,0-5,5A5,5,0,0,0,329.2,466.5Zm-5.46-22.59a5,5,0,1,0,5-5A5,5,0,0,0,323.74,443.91Zm12-26.57a4.53,4.53,0,1,0,0,9.06,4.53,4.53,0,1,0,0-9.06Zm9.46-21.46a4.94,4.94,0,1,0,4.95,4.91A4.93,4.93,0,0,0,345.17,395.88Zm6.9-14.89a5,5,0,0,0,5,5,5,5,0,0,0-.06-10A5,5,0,0,0,352.07,381Zm15.11-18.32a3.85,3.85,0,0,0,3.87,3.78,3.78,3.78,0,0,0,3.76-3.82,3.83,3.83,0,0,0-3.81-3.85A3.9,3.9,0,0,0,367.18,362.67ZM387,341.48a4.49,4.49,0,1,0,4.53,4.47A4.5,4.5,0,0,0,387,341.48Zm17.81-14.6a4.38,4.38,0,1,0,4.45,4.36A4.37,4.37,0,0,0,404.79,326.88Zm19.42-12.53a4.33,4.33,0,1,0,4.34,4.29A4.3,4.3,0,0,0,424.21,314.35Zm20.68-11.79a5.83,5.83,0,1,0,5.84,5.78A5.85,5.85,0,0,0,444.89,302.56Zm21.74-7.87a5.82,5.82,0,1,0,.07,11.63,5.82,5.82,0,0,0-.07-11.63ZM489,289.11a6.06,6.06,0,1,0,6.07,6A6,6,0,0,0,489,289.11ZM512,286.19a6.22,6.22,0,1,0,6.27,6.19A6.17,6.17,0,0,0,512,286.19Zm23.13-.11a6.22,6.22,0,1,0,6.24,6.18A6.17,6.17,0,0,0,535.1,286.08ZM558,288.63a6.18,6.18,0,0,0,.07,12.35,6.18,6.18,0,1,0-.07-12.35Zm22.53,5.19a6.1,6.1,0,1,0,6.19,6.07A6.12,6.12,0,0,0,580.52,293.82Zm21.82,7.53a6.22,6.22,0,1,0,.07,12.43,6.22,6.22,0,0,0-.07-12.43Zm20.78,10.29a6,6,0,1,0,6,6A6,6,0,0,0,623.12,311.64Zm19.49,12.67a5.71,5.71,0,1,0,5.75,5.68A5.69,5.69,0,0,0,642.61,324.31Zm18,15.29a4.95,4.95,0,1,0,5,4.91A5,5,0,0,0,660.57,339.6Zm16.16,16.24A5.17,5.17,0,1,0,682,361,5.21,5.21,0,0,0,676.73,355.84Zm14.21,17.83a5.56,5.56,0,1,0,5.6,5.51A5.53,5.53,0,0,0,690.94,373.67Zm12,19.68a5.62,5.62,0,1,0,5.64,5.56A5.63,5.63,0,0,0,703,393.35Zm15.54,26.51a5.83,5.83,0,1,0-5.78,5.84A5.8,5.8,0,0,0,718.53,419.86ZM720,447a5.2,5.2,0,0,0,0-10.4,5.2,5.2,0,1,0,0,10.4Zm4.7,22.52a5.11,5.11,0,1,0-5.13-5.08A5.12,5.12,0,0,0,724.69,469.55Zm2,12.84a5.06,5.06,0,1,0,5,5A5,5,0,0,0,726.74,482.39Zm-.54,23.17a5,5,0,1,0,5,4.94A5,5,0,0,0,726.2,505.56Zm1.8,27.8a5,5,0,1,0-4.92,5A5,5,0,0,0,728,533.36Zm-10.68,26.95a4.55,4.55,0,1,0-4.54-4.52A4.53,4.53,0,0,0,717.32,560.31ZM709.05,582a4.7,4.7,0,1,0-4.69-4.68A4.7,4.7,0,0,0,709.05,582Zm-10.67,20.71a4.94,4.94,0,1,0-4.94-4.91A4.95,4.95,0,0,0,698.38,602.74Zm-12.92,19.15a5,5,0,0,0,4.92-5,4.94,4.94,0,1,0-4.92,5Zm-11,12.56a4,4,0,0,0-4-4,4,4,0,1,0,.05,8.07A4,4,0,0,0,674.42,634.45Zm-16.58,15.7a4.36,4.36,0,1,0-8.71.05,4.36,4.36,0,0,0,8.71-.05Zm-23,9.29a4.4,4.4,0,1,0,4.45,4.42A4.36,4.36,0,0,0,634.82,659.44Zm-20,20.2a4.34,4.34,0,1,0-4.37-4.29A4.34,4.34,0,0,0,614.8,679.64Zm-21.16,10.6a5.83,5.83,0,0,0-.07-11.66,5.83,5.83,0,1,0,.07,11.66ZM571.52,697a5.94,5.94,0,1,0-5.94-5.91A5.92,5.92,0,0,0,571.52,697Zm-22.82,4a5.91,5.91,0,1,0-5.88-5.88A5.89,5.89,0,0,0,548.7,701Zm-91.22-2.57a6.07,6.07,0,1,0,6.11,6A6.1,6.1,0,0,0,457.48,698.42Zm-21.57-8.34a6.22,6.22,0,1,0,6.23,6.21A6.21,6.21,0,0,0,435.91,690.08ZM415.24,680a6,6,0,1,0,6,5.91A6,6,0,0,0,415.24,680Zm-19.41-11.85a5.34,5.34,0,1,0,5.32,5.32A5.31,5.31,0,0,0,395.83,668.12Zm-18-14.61a5.51,5.51,0,0,0-5.52,5.51,5.57,5.57,0,0,0,5.58,5.54,5.53,5.53,0,0,0-.06-11Zm-16.43-16.26a5.51,5.51,0,0,0-5.48,5.56,5.51,5.51,0,0,0,11-.06A5.52,5.52,0,0,0,361.37,637.25Zm-9.22-12.38a5.38,5.38,0,0,0-5.48-5.3,5.33,5.33,0,0,0,.06,10.66A5.39,5.39,0,0,0,352.15,624.87Zm-18.07-13.58a5.71,5.71,0,1,0-.05-11.42,5.71,5.71,0,0,0,.05,11.42Zm-10.54-20.56a5.65,5.65,0,0,0-.05-11.3,5.65,5.65,0,1,0,.05,11.3Zm-8.41-21.22a6,6,0,1,0-6-5.94A5.95,5.95,0,0,0,315.13,569.51Zm-6.06-22.76a5.46,5.46,0,0,0,5.39-5.53,5.46,5.46,0,0,0-10.91.08A5.48,5.48,0,0,0,309.07,546.75Zm-3.76-23.12a5.15,5.15,0,1,0-5.22-5.12A5.19,5.19,0,0,0,305.31,523.63ZM304,500.84a5.4,5.4,0,1,0-5.43-5.39A5.4,5.4,0,0,0,304,500.84Zm1-33.32a4.84,4.84,0,1,0,4.87,4.81A4.85,4.85,0,0,0,305,467.52Zm8.34-18a4.82,4.82,0,1,0-4.76,4.87A4.82,4.82,0,0,0,313.36,449.48Zm-4.08-22.27a5.13,5.13,0,1,0,5.08-5.1A5.11,5.11,0,0,0,309.28,427.21Zm13.26-26.46a4.84,4.84,0,1,0,4.87,4.81A4.86,4.86,0,0,0,322.54,400.75ZM332.93,390a5,5,0,1,0-5.06-5A5,5,0,0,0,332.93,390Zm12.44-20.31a4.14,4.14,0,1,0-4.12-4.12A4.15,4.15,0,0,0,345.37,369.64Zm14.51-18.34a3.82,3.82,0,0,0,3.82-3.83,3.87,3.87,0,0,0-3.87-3.81,3.82,3.82,0,0,0,.05,7.64Zm16.25-16.2a4,4,0,0,0,0-8.05,4,4,0,1,0,0,8.05ZM394,320.83a4.39,4.39,0,1,0-4.41-4.36A4.37,4.37,0,0,0,394,320.83Zm19.28-11.21a5.86,5.86,0,1,0-5.88-5.83A5.83,5.83,0,0,0,413.3,309.62ZM433.86,299a5.81,5.81,0,1,0-5.89-5.78A5.81,5.81,0,0,0,433.86,299Zm21.49-8a6.18,6.18,0,1,0-6.24-6.15A6.18,6.18,0,0,0,455.35,291Zm22.28-6.36a5.92,5.92,0,1,0-5.92-5.88A5.87,5.87,0,0,0,477.63,284.59Zm22.72-15.84a6.23,6.23,0,1,0,6.22,6.18A6.17,6.17,0,0,0,500.35,268.75Zm23-1.4a6.28,6.28,0,1,0,6.31,6.26A6.28,6.28,0,0,0,523.4,267.35Zm23.14,1.8a5.56,5.56,0,1,0,5.56,5.55A5.6,5.6,0,0,0,546.54,269.15Zm22.75,3.05a6,6,0,1,0,6.08,6A6,6,0,0,0,569.29,272.2ZM591.7,278a6.11,6.11,0,1,0,6.12,6.08A6.1,6.1,0,0,0,591.7,278ZM613.31,286a6.22,6.22,0,1,0,6.23,6.18A6.19,6.19,0,0,0,613.31,286Zm20.59,10.78a5.83,5.83,0,1,0,5.86,5.78A5.84,5.84,0,0,0,633.9,296.79Zm19.46,12.89a5.41,5.41,0,1,0,5.44,5.39A5.39,5.39,0,0,0,653.36,309.68Zm18,14.91a4.95,4.95,0,0,0,0,9.89,4.95,4.95,0,1,0,0-9.89Zm16.41,16a5.17,5.17,0,1,0,5.22,5.14A5.18,5.18,0,0,0,687.77,340.61Zm14.67,17.69a5.35,5.35,0,1,0,5.36,5.3A5.33,5.33,0,0,0,702.44,358.3Zm12.66,18.9a5.76,5.76,0,1,0,5.78,5.72A5.78,5.78,0,0,0,715.1,377.2Zm10.66,32a5.74,5.74,0,1,0-5.82-5.71A5.75,5.75,0,0,0,725.76,409.22Zm2.42,15.8a5.91,5.91,0,1,0,5.89-5.94A5.91,5.91,0,0,0,728.18,425Zm12,16.8a5.46,5.46,0,1,0,5.47,5.4A5.44,5.44,0,0,0,740.16,441.82Zm3.78,23.12A5.11,5.11,0,1,0,749,470,5.13,5.13,0,0,0,743.94,464.94Zm1.28,22.89a5.3,5.3,0,1,0,5.36,5.26A5.29,5.29,0,0,0,745.22,487.83ZM749,516.15a4.83,4.83,0,1,0-4.78,4.88A4.87,4.87,0,0,0,749,516.15Zm-8.36,18.05a4.84,4.84,0,1,0,4.87,4.77A4.82,4.82,0,0,0,740.65,534.2Zm-5.86,22.12a5,5,0,0,0-5,5,5,5,0,1,0,5-5Zm-8.1,31.36A4.71,4.71,0,1,0,722,583,4.7,4.7,0,0,0,726.69,587.68ZM721,603.56a4.76,4.76,0,1,0-4.71,4.75A4.73,4.73,0,0,0,721,603.56ZM703.84,627a4,4,0,0,0,4-4,4,4,0,1,0-8.08,0A4,4,0,0,0,703.84,627ZM689.4,645.12a4.06,4.06,0,1,0-4.07-4A4.08,4.08,0,0,0,689.4,645.12Zm-11.94,12.29a4.34,4.34,0,0,0-4.39-4.26,4.33,4.33,0,0,0,0,8.66A4.38,4.38,0,0,0,677.46,657.41Zm-17.82,14.67a4.39,4.39,0,1,0-4.36,4.39A4.39,4.39,0,0,0,659.64,672.08ZM636,690.92a6.16,6.16,0,1,0-6.24-6.13A6.11,6.11,0,0,0,636,690.92Zm-20.49,10.24a5.79,5.79,0,1,0-5.86-5.74A5.79,5.79,0,0,0,615.48,701.16Zm-27.41,2.62a5.87,5.87,0,0,0,5.89,5.8,5.83,5.83,0,0,0-.07-11.65A5.87,5.87,0,0,0,588.07,703.78Zm-16.52.18a5.89,5.89,0,1,0,5.94,5.89A5.91,5.91,0,0,0,571.55,704Zm-22.7,3.56a6.07,6.07,0,1,0,6.06,6A6.1,6.1,0,0,0,548.85,707.52Zm-91.38,9.94a6.23,6.23,0,0,0-6.22,6.24,6.22,6.22,0,0,0,12.44-.07A6.22,6.22,0,0,0,457.47,717.46Zm-21.9-7.4a6.05,6.05,0,1,0,6.14,6A6.14,6.14,0,0,0,435.57,710.06Zm-20.93-9.41a5.86,5.86,0,1,0,5.84,5.83A5.81,5.81,0,0,0,414.64,700.65Zm-20-11.47a5.71,5.71,0,1,0,.06,11.41,5.71,5.71,0,1,0-.06-11.41Zm-18.71-13.65a5.9,5.9,0,1,0,5.95,5.86A5.88,5.88,0,0,0,375.89,675.53Zm-17.36-15.31a6,6,0,1,0,.07,11.94,6,6,0,0,0-.07-11.94Zm-15.9-16.82a6,6,0,0,0,.07,11.93,6,6,0,1,0-.07-11.93Zm-8.44-12.35a5.62,5.62,0,0,0-11.23.05,5.62,5.62,0,1,0,11.23-.05Zm-17.9-25.14a5.61,5.61,0,1,0,.06,11.22,5.57,5.57,0,0,0,5.53-5.62A5.63,5.63,0,0,0,316.29,605.91ZM305.9,585.34a5.54,5.54,0,1,0,5.55,5.52A5.52,5.52,0,0,0,305.9,585.34Zm-2.38-16a5.89,5.89,0,1,0-5.83,5.89A5.89,5.89,0,0,0,303.52,569.31Zm-12-16.47a5.76,5.76,0,1,0-.06-11.52,5.76,5.76,0,1,0,.06,11.52Zm-4-23a5.56,5.56,0,1,0-5.62-5.52A5.55,5.55,0,0,0,287.49,529.88ZM285.66,507a5.71,5.71,0,1,0-.06-11.41,5.71,5.71,0,0,0,.06,11.41Zm-4.86-28.78a5.33,5.33,0,1,0,5.32-5.3A5.36,5.36,0,0,0,280.8,478.22Zm12.84-23a4.87,4.87,0,1,0-4.86,4.87A4.83,4.83,0,0,0,293.64,455.24Zm0-27.55a5,5,0,1,0,5,5A5,5,0,0,0,293.62,427.69Zm7-21.82a4.82,4.82,0,1,0,4.8,4.79A4.81,4.81,0,0,0,300.63,405.87Zm9.1-21.1a4.69,4.69,0,1,0,4.7,4.65A4.68,4.68,0,0,0,309.73,384.77ZM320.86,374a4.84,4.84,0,1,0-4.79-4.82A4.84,4.84,0,0,0,320.86,374Zm13-29.41a5.51,5.51,0,1,0,5.51,5.47A5.51,5.51,0,0,0,333.86,344.63Zm14.91-7.18a5.06,5.06,0,1,0-5.13-5A5,5,0,0,0,348.77,337.45Zm16.44-16.8a4.48,4.48,0,1,0-4.49-4.46A4.52,4.52,0,0,0,365.21,320.65Zm17.88-14.44a4.6,4.6,0,1,0-4.61-4.54A4.53,4.53,0,0,0,383.09,306.21Zm19.29-11.27a6.07,6.07,0,1,0-6.17-6A6.13,6.13,0,0,0,402.38,294.94Zm20.41-10.68a6.23,6.23,0,1,0-.07-12.46,6.23,6.23,0,0,0,.07,12.46Zm21.32-8.77a6.27,6.27,0,1,0-6.3-6.26A6.31,6.31,0,0,0,444.11,275.49Zm22.13-6.94a6.07,6.07,0,1,0-6.08-6A6.07,6.07,0,0,0,466.24,268.55Zm22.66-4.4a6.23,6.23,0,1,0-6.33-6.19A6.24,6.24,0,0,0,488.9,264.15Zm23-2.27a6.28,6.28,0,1,0-6.34-6.25A6.34,6.34,0,0,0,511.86,261.88Zm23-12.7a6.29,6.29,0,1,0,6.23,6.25A6.26,6.26,0,0,0,534.91,249.18Zm23,2.16a6.23,6.23,0,1,0,6.23,6.19A6.17,6.17,0,0,0,557.87,251.34Zm22.7,4.33a6.22,6.22,0,1,0,6.25,6.19A6.22,6.22,0,0,0,580.57,255.67Zm22.2,6.64a6.07,6.07,0,1,0,6.08,6A6,6,0,0,0,602.77,262.31Zm21.42,8.48a6.18,6.18,0,1,0,6.16,6.16A6.18,6.18,0,0,0,624.19,270.79Zm20.49,11a5.87,5.87,0,1,0,5.9,5.82A5.84,5.84,0,0,0,644.68,281.75Zm19.4,12.72a5.7,5.7,0,1,0,5.7,5.68A5.7,5.7,0,0,0,664.08,294.47Zm18.08,14.34a5.72,5.72,0,1,0,5.73,5.68A5.69,5.69,0,0,0,682.16,308.81Zm16.61,15.68a6.07,6.07,0,1,0,6.07,6A6.07,6.07,0,0,0,698.77,324.49Zm15,18.07a5.6,5.6,0,0,0,.06,11.2,5.6,5.6,0,1,0-.06-11.2ZM727,372.69a5.61,5.61,0,1,0-5.61-5.6A5.62,5.62,0,0,0,727,372.69Zm11.34,20.13a5.62,5.62,0,1,0-5.66-5.59A5.63,5.63,0,0,0,738.37,392.82Zm3.46,15.56a5.86,5.86,0,1,0,5.83-5.91A5.83,5.83,0,0,0,741.83,408.38Zm13.08,16.19a5.71,5.71,0,1,0,5.74,5.67A5.72,5.72,0,0,0,754.91,424.57Zm-.68,28.26A5.81,5.81,0,1,0,760,447,5.82,5.82,0,0,0,754.23,452.83Zm8.67,17.23a5.65,5.65,0,1,0,5.68,5.6A5.65,5.65,0,0,0,762.9,470.06Zm-4.44,28.76a5.14,5.14,0,1,0,5.11-5.16A5.15,5.15,0,0,0,758.46,498.82Zm3.6,28.27a5.26,5.26,0,1,0-5.26-5.22A5.21,5.21,0,0,0,762.06,527.09Zm1.08,17.51a4.86,4.86,0,1,0-4.83,4.91A4.85,4.85,0,0,0,763.14,544.6Zm-10.85,17.55a4.79,4.79,0,1,0,4.84,4.79A4.8,4.8,0,0,0,752.29,562.15Zm-8,31.14a4.69,4.69,0,0,0,0-9.38,4.69,4.69,0,1,0,0,9.38Zm-10.15,20.78a4.73,4.73,0,1,0-4.74-4.69A4.7,4.7,0,0,0,734.15,614.07Zm-12.09,20.51a5.56,5.56,0,1,0-5.59-5.53A5.56,5.56,0,0,0,722.06,634.58Zm-13.92,17.29a4.4,4.4,0,1,0-4.39-4.39A4.41,4.41,0,0,0,708.14,651.87Zm-11.36,12.59a4.32,4.32,0,1,0-4.3,4.29A4.27,4.27,0,0,0,696.78,664.46Zm-17,15.37a4.45,4.45,0,0,0-4.48-4.46,4.5,4.5,0,1,0,4.48,4.46Zm-23.08,18a4.31,4.31,0,0,0,0-8.61,4.31,4.31,0,0,0,0,8.61Zm-19.84,13.59a6.09,6.09,0,1,0-6.08-6A6.07,6.07,0,0,0,636.82,711.42Zm-20.9,10a6.27,6.27,0,1,0-6.3-6.2A6.29,6.29,0,0,0,615.92,721.44Zm-21.81-4.65a6.18,6.18,0,1,0,6.2,6.12A6.23,6.23,0,0,0,594.11,716.79ZM457.38,736.5a6.27,6.27,0,1,0,6.33,6.24A6.3,6.3,0,0,0,457.38,736.5Zm-22.05-7a6.27,6.27,0,1,0,.06,12.53,6.27,6.27,0,1,0-.06-12.53Zm-21.27-8.63a6,6,0,0,0,.07,11.91,6,6,0,1,0-.07-11.91Zm-20.3-10.94a6,6,0,1,0,6,6A6,6,0,0,0,393.76,709.9Zm-19.41-12.81a6.24,6.24,0,1,0,6.23,6.21A6.25,6.25,0,0,0,374.35,697.09Zm-18.06-14a6,6,0,1,0,5.89,5.9A5.93,5.93,0,0,0,356.29,683.07Zm-16.87-15.81a5.87,5.87,0,1,0,5.93,5.87A5.89,5.89,0,0,0,339.42,667.26Zm-51.11-76.34a5.77,5.77,0,1,0,5.86,5.71A5.75,5.75,0,0,0,288.31,590.92ZM285.76,575a5.55,5.55,0,1,0-5.54,5.64A5.53,5.53,0,0,0,285.76,575Zm-6.35-22.19a5.42,5.42,0,0,0-5.47-5.38,5.44,5.44,0,1,0,5.47,5.38Zm-4-22.7a5.67,5.67,0,0,0-5.7-5.67,5.72,5.72,0,1,0,.06,11.44A5.7,5.7,0,0,0,275.37,530.14ZM267.5,512a4.85,4.85,0,1,0-4.87-4.83A4.85,4.85,0,0,0,267.5,512Zm-.13-23a5,5,0,1,0-4.93-4.94A5,5,0,0,0,267.37,489Zm2-22.74a5.25,5.25,0,1,0-5.23-5.2A5.24,5.24,0,0,0,269.36,466.3Zm9.44-28a5.42,5.42,0,0,0-5.48-5.42,5.45,5.45,0,1,0,5.48,5.42ZM273.88,416a5.49,5.49,0,1,0,5.45-5.48A5.48,5.48,0,0,0,273.88,416Zm8.76-21.66a4.66,4.66,0,0,0,4.67,4.67,4.72,4.72,0,1,0,0-9.43A4.69,4.69,0,0,0,282.64,394.38Zm14.63-16.18a4.73,4.73,0,1,0-.06-9.46,4.73,4.73,0,0,0,.06,9.46ZM309,358a4.39,4.39,0,1,0-4.37-4.38A4.36,4.36,0,0,0,309,358Zm13.47-18.09a5.06,5.06,0,1,0-5-5A5,5,0,0,0,322.49,339.89Zm15.12-18a4.5,4.5,0,0,0-.05-9,4.5,4.5,0,0,0,.05,9Zm139.75-74.29a6.32,6.32,0,0,0-.06-12.64,6.56,6.56,0,0,0-2.3.48c-1.14,1-2.28,2.07-3.39,3.18a6.06,6.06,0,0,0-.66,2.71A6.37,6.37,0,0,0,477.36,247.56Zm22.87-3.32a6.23,6.23,0,1,0-6.24-6.19A6.2,6.2,0,0,0,500.23,244.24Zm23-1.16a6.22,6.22,0,1,0-6.24-6.19A6.19,6.19,0,0,0,523.27,243.08Zm23.15.92a6.23,6.23,0,1,0-6.23-6.19A6.22,6.22,0,0,0,546.42,244Zm22.88,2.8a6.06,6.06,0,1,0-6.07-6A6,6,0,0,0,569.3,246.8Zm22.5-7.3a6.27,6.27,0,1,0,6.24,6.23A6.27,6.27,0,0,0,591.8,239.5Zm21.93,7a6.27,6.27,0,1,0,6.31,6.24A6.26,6.26,0,0,0,613.73,246.52ZM635,255.78a6,6,0,1,0,6,5.94A6,6,0,0,0,635,255.78Zm20.42,10.86a6,6,0,1,0,6,5.95A6,6,0,0,0,655.46,266.64ZM674.79,279a6.22,6.22,0,1,0,6.27,6.2A6.23,6.23,0,0,0,674.79,279Zm18.14,14.47a6.06,6.06,0,1,0,6.11,6.05A6,6,0,0,0,692.93,293.46Zm16.8,16.08a5.87,5.87,0,1,0,5.89,5.83A5.86,5.86,0,0,0,709.73,309.54ZM725,326.88a5.86,5.86,0,1,0,5.89,5.81A5.82,5.82,0,0,0,725,326.88Zm13.69,18.7a5.77,5.77,0,1,0,5.78,5.73A5.8,5.8,0,0,0,738.68,345.58Zm11.94,19.86a5.66,5.66,0,1,0,5.7,5.61A5.63,5.63,0,0,0,750.62,365.44ZM755,391.91a5.77,5.77,0,1,0,5.76-5.8A5.78,5.78,0,0,0,755,391.91Zm14,16.17a5.36,5.36,0,1,0,5.4,5.34A5.34,5.34,0,0,0,769,408.08Zm6.27,22.16a5.45,5.45,0,1,0,5.48,5.42A5.44,5.44,0,0,0,775.26,430.24Zm4.22,22.48a5.66,5.66,0,1,0,5.72,5.65A5.66,5.66,0,0,0,779.48,452.72Zm2.21,22.94a5.71,5.71,0,1,0,5.75,5.69A5.73,5.73,0,0,0,781.69,475.66Zm5.53,28.77a5.38,5.38,0,1,0-5.34,5.4A5.4,5.4,0,0,0,787.22,504.43Zm-2.11,23a5.21,5.21,0,0,0-5.28-5.19,5.25,5.25,0,1,0,5.28,5.19Zm-3.81,22.75a5.41,5.41,0,1,0-5.37,5.43A5.4,5.4,0,0,0,781.3,550.21ZM769.88,578a5.44,5.44,0,1,0-5.48-5.45A5.39,5.39,0,0,0,769.88,578Zm-8,20.93a4.7,4.7,0,1,0-4.71-4.71A4.69,4.69,0,0,0,761.87,598.91ZM752,619.78a4.69,4.69,0,1,0-4.72-4.67A4.71,4.71,0,0,0,752,619.78Zm-7.4,15.14a4.37,4.37,0,1,0-4.33,4.41A4.35,4.35,0,0,0,744.56,634.92Zm-17.84,23.82a5,5,0,1,0-5.05-5A5.07,5.07,0,0,0,726.72,658.74Zm-15.07,16.84a4.4,4.4,0,1,0-4.41-4.35A4.37,4.37,0,0,0,711.65,675.58Zm-12.34,11.63a4.32,4.32,0,0,0-8.64,0,4.32,4.32,0,1,0,8.64,0ZM677,705.76a4,4,0,1,0-4-4A4,4,0,0,0,677,705.76ZM657.77,710a4.55,4.55,0,1,0,4.57,4.49A4.53,4.53,0,0,0,657.77,710Zm-20.24,21.88a6.29,6.29,0,1,0-6.29-6.28A6.28,6.28,0,0,0,637.53,731.91ZM616.33,741a6.24,6.24,0,1,0-6.24-6.2A6.21,6.21,0,0,0,616.33,741Zm-159,14.41a6.32,6.32,0,1,0,6.34,6.29A6.32,6.32,0,0,0,457.36,755.45ZM435.23,749a6.23,6.23,0,1,0,6.21,6.19A6.16,6.16,0,0,0,435.23,749Zm-21.51-8.12a6,6,0,1,0,6,6A6,6,0,0,0,413.72,740.87ZM393,730.43a6.23,6.23,0,1,0,6.21,6.2A6.21,6.21,0,0,0,393,730.43Zm-19.87-11.82a6.19,6.19,0,1,0,6.28,6.17A6.27,6.27,0,0,0,373.11,718.61Zm-36.28-28.39a6.09,6.09,0,0,0,.08,12.17,6.09,6.09,0,0,0-.08-12.17ZM251.89,530.48a5.51,5.51,0,1,0,5.56,5.49A5.53,5.53,0,0,0,251.89,530.48ZM254.63,513a5.19,5.19,0,1,0-5.21,5.22A5.19,5.19,0,0,0,254.63,513Zm-5.77-18.1a5,5,0,1,0,0-9.9,5,5,0,0,0,0,9.9Zm1.28-23a5,5,0,1,0-5-5A5,5,0,0,0,250.14,471.89Zm3.19-33.13a5.25,5.25,0,1,0,5.29,5.21A5.19,5.19,0,0,0,253.33,438.76Zm5.23-22.5a5.25,5.25,0,1,0,5.28,5.22A5.29,5.29,0,0,0,258.56,416.26Zm12-16.81a4.94,4.94,0,1,0-4.93,5A4.91,4.91,0,0,0,270.52,399.45Zm3.92-26.1a4.8,4.8,0,0,0,.05,9.6,4.8,4.8,0,0,0-.05-9.6Zm10.6-11a4.7,4.7,0,1,0-4.69-4.67A4.68,4.68,0,0,0,285,362.31Zm12.27-20.12a4.14,4.14,0,0,0-.05-8.28,4.14,4.14,0,0,0,.05,8.28Zm13.91-17.87a4.75,4.75,0,0,0-.05-9.49,4.75,4.75,0,1,0,.05,9.49Zm15.26-17.06a4.93,4.93,0,1,0-4.9-4.9A4.94,4.94,0,0,0,326.48,307.26Zm208.31-82.51a6.11,6.11,0,1,0-6.16-6.09A6.07,6.07,0,0,0,534.79,224.75Zm23,1.94a6.23,6.23,0,1,0-6.19-6.19A6.17,6.17,0,0,0,557.74,226.69Zm22.86,3.77a6.28,6.28,0,1,0-6.31-6.26A6.26,6.26,0,0,0,580.6,230.46ZM603,236a6.22,6.22,0,1,0-6.23-6.17A6.24,6.24,0,0,0,603,236Zm21.86,7.33a6.07,6.07,0,0,0-.07-12.13,6.07,6.07,0,1,0,.07,12.13Zm21.08-2.75a6,6,0,1,0,6,5.95A6,6,0,0,0,645.92,240.62Zm14.34,17a6,6,0,1,0,6-6A6,6,0,0,0,660.26,257.64Zm19.26,12.71a6.06,6.06,0,1,0,6-6.14A6,6,0,0,0,679.52,270.35Zm18.18,14.23a6.06,6.06,0,1,0,6-6.09A6,6,0,0,0,697.7,284.58Zm22.95,9.59a6.1,6.1,0,1,0,6.12,6.06A6.09,6.09,0,0,0,720.65,294.17Zm15.53,17.27a5.92,5.92,0,0,0,.06,11.83,5.92,5.92,0,1,0-.06-11.83ZM750.25,330a5.73,5.73,0,1,0,5.74,5.69A5.7,5.7,0,0,0,750.25,330Zm12.46,19.67a5.49,5.49,0,1,0,5.55,5.45A5.48,5.48,0,0,0,762.71,349.63ZM773.57,381a5.45,5.45,0,1,0-5.47-5.39A5.46,5.46,0,0,0,773.57,381Zm3.77,15.83a5.28,5.28,0,1,0,5.27-5.32A5.3,5.3,0,0,0,777.34,396.8Zm18.25,21.89a5.7,5.7,0,1,0-5.67,5.74A5.71,5.71,0,0,0,795.59,418.69Zm-.35,17a5.5,5.5,0,1,0,5.54,5.46A5.47,5.47,0,0,0,795.24,435.67Zm-1.51,28.39a5.05,5.05,0,0,0,10.1-.06,5.05,5.05,0,1,0-10.1.06Zm1.39,23a5.21,5.21,0,1,0,5.16-5.22A5.2,5.2,0,0,0,795.12,487.06ZM800,505.3a4.85,4.85,0,1,0,4.87,4.82A4.85,4.85,0,0,0,800,505.3Zm-7.48,27.86a5.2,5.2,0,1,0,5.15-5.24A5.22,5.22,0,0,0,792.47,533.16Zm-4.35,22.72a5.36,5.36,0,1,0,5.31-5.36A5.36,5.36,0,0,0,788.12,555.88Zm-.72,27.54a5.3,5.3,0,1,0-5.35-5.27A5.3,5.3,0,0,0,787.4,583.42Zm-3.14,16.34a4.85,4.85,0,1,0-4.82,4.91A4.82,4.82,0,0,0,784.26,599.76Zm-14.51,25.86a4.84,4.84,0,1,0-4.87-4.78A4.87,4.87,0,0,0,769.75,625.62Zm-6.91,15.21a4.58,4.58,0,1,0-4.56,4.6A4.56,4.56,0,0,0,762.84,640.83Zm-17.63,23.82a4.77,4.77,0,0,0,4.7-4.83,4.73,4.73,0,0,0-9.46,0A4.76,4.76,0,0,0,745.21,664.65ZM730.58,682.9a5.14,5.14,0,1,0-5.17-5.12A5.14,5.14,0,0,0,730.58,682.9ZM719.4,694.31a4.94,4.94,0,0,0-9.87.06,4.94,4.94,0,1,0,9.87-.06ZM697.09,714A4.53,4.53,0,1,0,697,705a4.53,4.53,0,0,0,.05,9.06ZM678.5,728a4.79,4.79,0,1,0-4.85-4.74A4.8,4.8,0,0,0,678.5,728Zm-19.69,13.42a6.15,6.15,0,0,0-.07-12.29,6.15,6.15,0,1,0,.07,12.29ZM638.16,751.9a6.26,6.26,0,1,0-6.3-6.19A6.26,6.26,0,0,0,638.16,751.9Zm-21.39,8.58a6.23,6.23,0,1,0-6.34-6.19A6.24,6.24,0,0,0,616.77,760.48Zm-181.65,8a6.13,6.13,0,1,0,6.12,6A6.07,6.07,0,0,0,435.12,768.44Zm-21.75-7.59a5.8,5.8,0,0,0,.06,11.6,5.8,5.8,0,1,0-.06-11.6Zm-21-10a6.25,6.25,0,0,0-6.25,6.25,6.27,6.27,0,1,0,12.54-.07A6.23,6.23,0,0,0,392.37,750.87Zm-20.16-11.24A6.26,6.26,0,0,0,366,746a6.19,6.19,0,0,0,6.3,6.19,6.26,6.26,0,1,0-.05-12.52ZM352.88,727a6.17,6.17,0,1,0,6.16,6.13A6.11,6.11,0,0,0,352.88,727ZM231.18,467.73a5,5,0,1,0,5,5A5,5,0,0,0,231.18,467.73Zm2.58-23a5,5,0,1,0,5.05,5A5.05,5.05,0,0,0,233.76,444.74Zm4.39-22.7a5,5,0,1,0,5,5A5,5,0,0,0,238.15,422Zm6.19-22.26a5,5,0,1,0,5,5A5,5,0,0,0,244.34,399.78Zm13-16.7a5.13,5.13,0,1,0-5.11,5.13A5.11,5.11,0,0,0,257.33,383.08Zm4.44-26.42a5.41,5.41,0,1,0,.06,10.81,5.41,5.41,0,1,0-.06-10.81ZM273,346.94a5.07,5.07,0,0,0,0-10.14,5.07,5.07,0,1,0,0,10.14Zm12.71-19.86a4.49,4.49,0,1,0-4.53-4.48A4.47,4.47,0,0,0,285.73,327.08Zm14.18-17.77a4.93,4.93,0,1,0-.06-9.86,4.93,4.93,0,1,0,.06,9.86Zm291.88-95.14a6.32,6.32,0,1,0-6.32-6.28A6.32,6.32,0,0,0,591.79,214.17Zm22.26,6a6.12,6.12,0,1,0-.07-12.24,6.12,6.12,0,0,0,.07,12.24Zm21.74,7.75a6,6,0,1,0-6-5.94A6,6,0,0,0,635.79,227.87Zm14.75,3.62a6.27,6.27,0,1,0,6.25-6.32A6.28,6.28,0,0,0,650.54,231.49Zm26.5,17.4a6.27,6.27,0,1,0-6.28-6.24A6.31,6.31,0,0,0,677,248.89Zm19.3,12.64a6.17,6.17,0,1,0-6.2-6.14A6.18,6.18,0,0,0,696.34,261.53Zm18.19,14.21a6.17,6.17,0,1,0-6.18-6.15A6.19,6.19,0,0,0,714.53,275.74Zm11.15,9.44a5.88,5.88,0,1,0,5.86-5.88A5.89,5.89,0,0,0,725.68,285.18Zm16,16.88a5.65,5.65,0,1,0,5.61-5.66A5.67,5.67,0,0,0,741.69,302.06Zm14.36,18.06a5.66,5.66,0,1,0,5.65-5.7A5.68,5.68,0,0,0,756.05,320.12Zm18.64,24.53a5.41,5.41,0,1,0-.05-10.82,5.41,5.41,0,0,0,.05,10.82ZM786,354a5.32,5.32,0,1,0,5.32,5.27A5.3,5.3,0,0,0,786,354Zm4.34,26.25a5.47,5.47,0,1,0,5.42-5.46A5.45,5.45,0,0,0,790.36,380.28ZM809,401.87a5.1,5.1,0,0,0-10.2.06A5.14,5.14,0,0,0,804,407,5.09,5.09,0,0,0,809,401.87Zm1.3,17.06a5.16,5.16,0,1,0,5.17,5.13A5.17,5.17,0,0,0,810.32,418.93Zm2.37,50.75a5.11,5.11,0,1,0,9.8-2,42,42,0,0,0-3.21-2.84,4.76,4.76,0,0,0-1.51-.29A5.11,5.11,0,0,0,812.69,469.68Zm6.14,26.42a3.37,3.37,0,1,0,0-6.73,3.37,3.37,0,1,0,0,6.73Zm-.76,25.45a5.72,5.72,0,1,0-5.74-5.67A5.71,5.71,0,0,0,818.07,521.55Zm-2.63,21.57a4.34,4.34,0,1,0-4.35-4.33A4.36,4.36,0,0,0,815.44,543.12Zm-4.35,22.71a4.37,4.37,0,1,0-4.41-4.33A4.36,4.36,0,0,0,811.09,565.83Zm-6.21,12.85a5,5,0,1,0,5.06,5A5,5,0,0,0,804.88,578.68ZM802,605.38a5,5,0,1,0-5,5.07A5,5,0,0,0,802,605.38Zm-14.55,26.48a5.41,5.41,0,1,0-5.43-5.37A5.42,5.42,0,0,0,787.47,631.86Zm-11.16,19.87a5,5,0,1,0-5.09-5A5,5,0,0,0,776.31,651.73Zm-12.76,18.68a4.43,4.43,0,0,0,4.45-4.48,4.47,4.47,0,1,0-8.94,0A4.43,4.43,0,0,0,763.55,670.41Zm-14.2,18a4.29,4.29,0,1,0-4.31-4.26A4.29,4.29,0,0,0,749.35,688.45Zm-15.58,18.1a5.33,5.33,0,1,0-5.39-5.3A5.36,5.36,0,0,0,733.77,706.55ZM722.12,717a5.27,5.27,0,1,0-5.24,5.25A5.28,5.28,0,0,0,722.12,717Zm-23.3,19.35a5,5,0,0,0-.06-9.91,5,5,0,1,0,.06,9.91Zm-19.21,3.14a4.83,4.83,0,1,0,4.86,4.82A4.8,4.8,0,0,0,679.61,739.47Zm-20,22.52a6.26,6.26,0,1,0-.06-12.52,6.2,6.2,0,0,0-6.24,6.26A6.27,6.27,0,0,0,659.59,762Zm-21,9.82a6.34,6.34,0,1,0-6.33-6.27A6.37,6.37,0,0,0,638.64,771.81ZM617,779.88a6.3,6.3,0,0,0,6.28-6.35,6.25,6.25,0,1,0-6.28,6.35ZM377.64,766.7a6.2,6.2,0,0,0-6.26-6.19,6.19,6.19,0,0,0-.38,12.37h.91A6.16,6.16,0,0,0,377.64,766.7Zm-154.73-334a4.81,4.81,0,1,0-9.61.05,4.9,4.9,0,0,0,1.37,3.32l.24.21a4.62,4.62,0,0,0,3.18,1.29A4.83,4.83,0,0,0,222.91,432.74Zm5.78-22.48a5.2,5.2,0,1,0-5.14,5.25A5.2,5.2,0,0,0,228.69,410.26Zm1.78-27.48a5.5,5.5,0,1,0,5.58,5.49A5.48,5.48,0,0,0,230.47,382.78Zm3.37-15.89a5.32,5.32,0,1,0,5.27-5.34A5.32,5.32,0,0,0,233.84,366.89Zm20.78-20.8a5.25,5.25,0,1,0-5.2,5.28A5.26,5.26,0,0,0,254.62,346.09Zm6.43-14.35a5.55,5.55,0,1,0-5.56-5.51A5.47,5.47,0,0,0,261.05,331.74Zm385.7-119.5a5.71,5.71,0,1,0-5.74-5.66A5.68,5.68,0,0,0,646.75,212.24Zm78.54,48.53a6.17,6.17,0,1,0-6.16-6.15A6.14,6.14,0,0,0,725.29,260.77Zm17.16,15.15a5.87,5.87,0,1,0-5.89-5.83A5.83,5.83,0,0,0,742.45,275.92Zm16,16.64a5.81,5.81,0,1,0-5.85-5.78A5.8,5.8,0,0,0,758.42,292.56Zm14.68,17.81a5.77,5.77,0,1,0-5.78-5.74A5.8,5.8,0,0,0,773.1,310.37Zm13.29,7.33a5.76,5.76,0,1,0,5.78,5.73A5.73,5.73,0,0,0,786.39,317.7Zm11.9,19.71a5.86,5.86,0,1,0,.05,11.72,5.86,5.86,0,1,0-.05-11.72Zm10.46,32.34a5.87,5.87,0,1,0-5.89-5.82A5.86,5.86,0,0,0,808.75,369.75ZM823.4,385.2a5.84,5.84,0,1,0-5.84,5.87A5.83,5.83,0,0,0,823.4,385.2Zm-4.43,22a5.86,5.86,0,1,0,5.84-5.89A5.87,5.87,0,0,0,819,407.18Zm17,118.7a4.39,4.39,0,1,0-4.38-4.37A4.39,4.39,0,0,0,836,525.88Zm-2.85,23a4.49,4.49,0,1,0,0-9,4.49,4.49,0,0,0,0,9Zm-4.54,23.38a5.23,5.23,0,1,0-5.21-5.2A5.18,5.18,0,0,0,828.62,572.27Zm-6.25,11.53a5.52,5.52,0,1,0,5.55,5.5A5.53,5.53,0,0,0,822.37,583.8Zm-13.14,27.26a5.34,5.34,0,1,0,5.3-5.35A5.34,5.34,0,0,0,809.23,611.06Zm-4,26.36a5.27,5.27,0,1,0-5.3-5.24A5.27,5.27,0,0,0,805.2,637.42Zm-10.93,20.35a5.29,5.29,0,1,0-5.37-5.29A5.32,5.32,0,0,0,794.27,657.77Zm-12.46,19.45a5.25,5.25,0,0,0,5.28-5.28,5.3,5.3,0,1,0-10.59,0A5.25,5.25,0,0,0,781.81,677.22ZM768,695.78a5.32,5.32,0,1,0-5.28-5.3A5.3,5.3,0,0,0,768,695.78Zm-15.12,17.46a5.35,5.35,0,1,0-5.39-5.33A5.31,5.31,0,0,0,752.86,713.24Zm-10.73,10.93a5.71,5.71,0,1,0-5.67,5.73A5.7,5.7,0,0,0,742.13,724.17Zm-17.91,15a5.35,5.35,0,1,0-5.34,5.35A5.38,5.38,0,0,0,724.22,739.18ZM700.29,758a5.14,5.14,0,1,0-5.21-5.12A5.16,5.16,0,0,0,700.29,758Zm-19.57,13.1a6,6,0,1,0-.06-11.94,6,6,0,0,0,.06,11.94Zm-20.47,11.12a6.3,6.3,0,0,0,6.24-6.34,6.27,6.27,0,0,0-12.53,0A6.32,6.32,0,0,0,660.25,782.22Zm-21.17,9.26a6.31,6.31,0,1,0-.07-12.61,6.31,6.31,0,0,0,.07,12.61Zm-21.74,7.63a6.32,6.32,0,1,0-6.37-6.27A6.29,6.29,0,0,0,617.34,799.11ZM203,410.68a5.19,5.19,0,1,0,.06,10.38,5.19,5.19,0,0,0-.06-10.38Zm6.27-22.58a5.56,5.56,0,0,0,0,11.12,5.56,5.56,0,0,0,0-11.12Zm13.24-16.25a5.32,5.32,0,0,0-5.4-5.35,5.4,5.4,0,1,0,.06,10.79A5.33,5.33,0,0,0,222.48,371.85Zm3.85-26.31a5.2,5.2,0,1,0,5.24,5.18A5.16,5.16,0,0,0,226.33,345.54Zm10.76-10a5.3,5.3,0,1,0-5.35-5.27A5.33,5.33,0,0,0,237.09,335.59Zm12.19-19.1a5.86,5.86,0,0,0-.07-11.72,5.86,5.86,0,1,0,.07,11.72ZM784.4,295.32a6.18,6.18,0,1,0-6.2-6.12A6.16,6.16,0,0,0,784.4,295.32Zm13.68,18.2a5.76,5.76,0,1,0-5.81-5.73A5.73,5.73,0,0,0,798.08,313.52Zm12.26,7.81a6,6,0,1,0,6,5.93A6,6,0,0,0,810.34,321.33Zm11,32.25a6,6,0,1,0-6-5.91A6,6,0,0,0,821.36,353.58Zm32.64,179a5.41,5.41,0,1,0-5.44-5.38A5.37,5.37,0,0,0,854,532.55Zm-3.12,22.78a5.3,5.3,0,1,0-5.32-5.24A5.29,5.29,0,0,0,850.88,555.33Zm-4.69,22.52a5.21,5.21,0,1,0-5.21-5.16A5.2,5.2,0,0,0,846.19,577.85Zm-6.27,11.49a5.57,5.57,0,1,0,5.58,5.54A5.55,5.55,0,0,0,839.92,589.34ZM826.8,616.67a5.33,5.33,0,1,0,5.3-5.39A5.31,5.31,0,0,0,826.8,616.67Zm-4,16a5.17,5.17,0,1,0,.06,10.34,5.17,5.17,0,1,0-.06-10.34Zm-10.69,30.9a5.3,5.3,0,1,0-5.29-5.3A5.29,5.29,0,0,0,812.13,663.54Zm-6.28,14.32a5.88,5.88,0,0,0-11.75.06,5.88,5.88,0,0,0,11.75-.06Zm-19.33,24.67a5.87,5.87,0,1,0-5.92-5.84A5.9,5.9,0,0,0,786.52,702.53Zm-14.74,16.82a4.93,4.93,0,0,0,0-9.85,4.93,4.93,0,1,0,0,9.85ZM761.4,731.14a5.62,5.62,0,1,0-5.61,5.6A5.63,5.63,0,0,0,761.4,731.14Zm-17.19,15.52a5.51,5.51,0,1,0-5.5,5.53A5.46,5.46,0,0,0,744.21,746.66ZM720.57,766a5,5,0,1,0-5-4.94A5,5,0,0,0,720.57,766Zm-19.05,13.17a5.15,5.15,0,0,0,5.12-5.14,5.17,5.17,0,1,0-5.12,5.14Zm-19.95,12.49a6,6,0,0,0,5.94-6,6,6,0,1,0-12,.07A5.93,5.93,0,0,0,681.57,791.63Zm-20.78-2a6.27,6.27,0,1,0,6.3,6.27A6.28,6.28,0,0,0,660.79,789.65ZM639.49,811a6.29,6.29,0,0,0-.06-12.58,6.29,6.29,0,1,0,.06,12.58Zm-21.93,7.28a6.32,6.32,0,0,0-.06-12.64,6.32,6.32,0,1,0,.06,12.64ZM188.42,393.55a5.56,5.56,0,1,0,5.55,5.54A5.55,5.55,0,0,0,188.42,393.55Zm12.2-16.47a5.15,5.15,0,1,0-5.16,5.17A5.11,5.11,0,0,0,200.62,377.08ZM199,355.64a4.92,4.92,0,1,0,4.86-5A4.94,4.94,0,0,0,199,355.64ZM213.79,340a5.26,5.26,0,1,0-.06-10.52,5.26,5.26,0,0,0,.06,10.52Zm11.29-20.28a5.16,5.16,0,1,0-5.18-5.15A5.16,5.16,0,0,0,225.08,319.7Zm584.53-21.6a6,6,0,1,0-6-5.92A6,6,0,0,0,809.61,298.1Zm24.13,39.43a6.06,6.06,0,1,0-6.07-6A6.06,6.06,0,0,0,833.74,337.53ZM871.9,538.2a5.41,5.41,0,1,0-5.47-5.37A5.38,5.38,0,0,0,871.9,538.2Zm-3.34,22.9a5.46,5.46,0,1,0-5.47-5.39A5.45,5.45,0,0,0,868.56,561.1Zm-4.8,22.63a5.49,5.49,0,1,0-5.55-5.45A5.47,5.47,0,0,0,863.76,583.73Zm-6.3,22.34a5.56,5.56,0,1,0-.07-11.12,5.56,5.56,0,0,0,.07,11.12ZM844.75,622.3a5,5,0,1,0,4.94-5A4.94,4.94,0,0,0,844.75,622.3Zm1.45,21.14a5.67,5.67,0,1,0-5.64,5.68A5.7,5.7,0,0,0,846.2,643.44ZM830,658.91a5.09,5.09,0,1,0,5.13,5A5.13,5.13,0,0,0,830,658.91ZM818,678.31a5.52,5.52,0,0,0,.05,11,5.52,5.52,0,1,0-.05-11ZM805,708.66a5.87,5.87,0,1,0-5.9-5.83A5.87,5.87,0,0,0,805,708.66Zm-14.41,17.66a5.45,5.45,0,1,0-5.49-5.42A5.45,5.45,0,0,0,790.56,726.32Zm-10.23,11.61a5.36,5.36,0,1,0-5.34,5.36A5.34,5.34,0,0,0,780.33,737.93Zm-22,20.82a4.8,4.8,0,1,0-4.83-4.74A4.78,4.78,0,0,0,758.36,758.75Zm-12.27,10.09a5.45,5.45,0,1,0-5.41,5.42A5.46,5.46,0,0,0,746.09,768.84Zm-24,19.43a5.75,5.75,0,1,0-5.81-5.77A5.75,5.75,0,0,0,722.07,788.27Zm-19.5,12.42a5.75,5.75,0,1,0-5.82-5.76A5.73,5.73,0,0,0,702.57,800.69Zm-20.32-1a6.31,6.31,0,1,0,6.33,6.28A6.28,6.28,0,0,0,682.25,799.73Zm-42.51,18a6.34,6.34,0,1,0,6.38,6.31A6.33,6.33,0,0,0,639.74,817.76Zm-22.07,6.9A6.32,6.32,0,1,0,624,831,6.34,6.34,0,0,0,617.67,824.66ZM174.25,376.85a5.61,5.61,0,1,0,5.62,5.58A5.61,5.61,0,0,0,174.25,376.85Zm13.25-16.21a5.54,5.54,0,1,0-5.54,5.59A5.57,5.57,0,0,0,187.5,360.64ZM191,333.88a5.55,5.55,0,1,0,.05,11.1,5.55,5.55,0,0,0-.05-11.1Zm10.38-9.78a5.3,5.3,0,1,0-5.3-5.29A5.3,5.3,0,0,0,201.42,324.1ZM889.73,544a5.51,5.51,0,1,0-5.55-5.49A5.5,5.5,0,0,0,889.73,544Zm-3.49,22.66a5.35,5.35,0,1,0-5.39-5.3A5.33,5.33,0,0,0,886.24,566.63Zm1.23,17.2a6.18,6.18,0,1,0-6.17,6.2A6.16,6.16,0,0,0,887.47,583.83Zm-12.53,17a5.24,5.24,0,1,0,.06,10.48,5.24,5.24,0,0,0-.06-10.48Zm-7.74,21.79a5.22,5.22,0,1,0,5.29,5.23A5.24,5.24,0,0,0,867.2,622.63Zm-9.05,20.92a5.56,5.56,0,1,0,5.58,5.53A5.53,5.53,0,0,0,858.15,643.55Zm-10.38,20.87a5.33,5.33,0,1,0,5.32,5.3A5.34,5.34,0,0,0,847.77,664.42Zm-38.55,68.63a5.86,5.86,0,1,0-5.89-5.83A5.84,5.84,0,0,0,809.22,733.05ZM799,744.6a4.94,4.94,0,1,0-4.92,4.93A4.93,4.93,0,0,0,799,744.6ZM783.39,761a5.62,5.62,0,1,0-5.58,5.65A5.62,5.62,0,0,0,783.39,761ZM766.1,776.4a5.61,5.61,0,1,0-5.57,5.59A5.59,5.59,0,0,0,766.1,776.4Zm-23.74,19.73a5.47,5.47,0,1,0-5.47-5.46A5.5,5.5,0,0,0,742.36,796.13Zm-19,13.39a5.79,5.79,0,1,0-5.82-5.75A5.79,5.79,0,0,0,723.35,809.52Zm-19.9.23a5.85,5.85,0,1,0,5.89,5.81A5.86,5.86,0,0,0,703.45,809.75ZM159.28,387.9a5.92,5.92,0,1,0-11.83.07,5.58,5.58,0,0,0,1,3,37.53,37.53,0,0,1,8,2A5.8,5.8,0,0,0,159.28,387.9Zm1.1-27.83a5.86,5.86,0,1,0,5.9,5.81A5.82,5.82,0,0,0,160.38,360.07Zm14.15-15.74a5.76,5.76,0,1,0-5.72,5.8A5.74,5.74,0,0,0,174.53,344.33Zm3.83-15.55a5.42,5.42,0,1,0-5.43-5.37A5.38,5.38,0,0,0,178.36,328.78Zm10.85-19.85a6,6,0,1,0-6-5.94A5.94,5.94,0,0,0,189.21,308.93Zm718.29,230a5.25,5.25,0,0,0-5.18,5.3,5.17,5.17,0,0,0,5.24,5.14,5.11,5.11,0,0,0,4.54-2.84c0-1.6,0-3.19,0-4.78A5.11,5.11,0,0,0,907.5,538.88Zm-3.61,33.75a5.71,5.71,0,1,0-5.76-5.67A5.73,5.73,0,0,0,903.89,572.63Zm-5.09,10.7a6.12,6.12,0,1,0,6.15,6.12A6.1,6.1,0,0,0,898.8,583.33Zm-6.34,22.72a5.62,5.62,0,1,0,5.63,5.61A5.64,5.64,0,0,0,892.46,606.05Zm-7.7,21.55a5.84,5.84,0,1,0,5.89,5.78A5.84,5.84,0,0,0,884.76,627.6Zm-57,111.54a5.69,5.69,0,1,0-5.75-5.67A5.68,5.68,0,0,0,827.81,739.14ZM812.9,745.2a5.94,5.94,0,1,0,6,5.91A5.94,5.94,0,0,0,812.9,745.2Zm-10.25,22.66a5.62,5.62,0,1,0-5.57,5.66A5.62,5.62,0,0,0,802.65,767.86ZM786,783.69a5.83,5.83,0,1,0-5.8,5.86A5.82,5.82,0,0,0,786,783.69Zm-17.93,14.77a5.67,5.67,0,1,0-11.34.06,5.67,5.67,0,0,0,11.34-.06Zm-24.32,7.84a5.86,5.86,0,1,0,5.89,5.81A5.84,5.84,0,0,0,743.77,806.3Zm-19.39,12.53a5.86,5.86,0,1,0,5.9,5.83A5.86,5.86,0,0,0,724.38,818.83ZM704.23,830.2a5.83,5.83,0,0,0-5.79,5.89,5.72,5.72,0,0,0,.53,2.38c.91.46,1.8.93,2.73,1.37,2.89,1.37,5.15,1.41,7.37-.59a5.62,5.62,0,0,0,1.08-3.21A5.85,5.85,0,0,0,704.23,830.2ZM139.15,365.38a5.91,5.91,0,1,0,6,5.87A5.89,5.89,0,0,0,139.15,365.38Zm7.71-21.62a5.72,5.72,0,1,0,5.72,5.7A5.76,5.76,0,0,0,146.86,343.76Zm14.55-15.62a5.68,5.68,0,1,0-5.67,5.72A5.65,5.65,0,0,0,161.41,328.14Zm4.43-14.91a5.86,5.86,0,1,0-.07-11.72,5.86,5.86,0,0,0,.07,11.72ZM837.22,757.54a5.51,5.51,0,1,0-5.45,5.52A5.54,5.54,0,0,0,837.22,757.54ZM822,774.67a5.77,5.77,0,1,0-5.76,5.78A5.74,5.74,0,0,0,822,774.67Zm-16.51,16.18a5.71,5.71,0,1,0-5.68,5.73A5.74,5.74,0,0,0,805.44,790.85ZM788.35,806a6,6,0,1,0-12,.06,6,6,0,0,0,12-.06Zm-24.3,8.83a5.41,5.41,0,1,0,5.47,5.39A5.39,5.39,0,0,0,764.05,814.86ZM118.33,371.15a5.61,5.61,0,1,0,5.63,5.58A5.56,5.56,0,0,0,118.33,371.15Zm7-22.27a5.87,5.87,0,1,0,.05,11.73,5.87,5.87,0,0,0-.05-11.73Zm14.12-15.78a5.87,5.87,0,1,0-5.9,5.91A5.89,5.89,0,0,0,139.47,333.1ZM143,317.74a5.71,5.71,0,1,0-.06-11.41,5.71,5.71,0,1,0,.06,11.41Zm10.5-20.42a5.86,5.86,0,1,0-.06-11.71,5.86,5.86,0,0,0,.06,11.71ZM855.92,763.91a5.51,5.51,0,1,0-5.49,5.5A5.52,5.52,0,0,0,855.92,763.91ZM841.4,781.26a6.22,6.22,0,0,0-12.44.06,6.22,6.22,0,1,0,12.44-.06Zm-16.63,16.53a5.71,5.71,0,1,0-5.67,5.73A5.69,5.69,0,0,0,824.77,797.79Zm-16.7,15.64a6,6,0,1,0-6,6A6,6,0,0,0,808.07,813.43Zm-23.93,8.8a5.92,5.92,0,1,0,6,5.87A5.92,5.92,0,0,0,784.14,822.23Zm-680-467.72a5.61,5.61,0,0,0,.06,11.21,5.61,5.61,0,1,0-.06-11.21Zm13.17-16.24a5.49,5.49,0,0,0-5.54-5.53,5.55,5.55,0,1,0,.06,11.09A5.49,5.49,0,0,0,117.33,338.27Zm3.19-16a5.35,5.35,0,1,0-5.41-5.32A5.35,5.35,0,0,0,120.52,322.24Zm9.88-21.15a5.1,5.1,0,1,0-5.14-5.09A5.1,5.1,0,0,0,130.4,301.09ZM854.12,793.28a5.45,5.45,0,1,0-5.48-5.41A5.48,5.48,0,0,0,854.12,793.28Zm-15.84,7.92a3.48,3.48,0,1,0,0,7,3.48,3.48,0,0,0,0-7Zm-16.67,16a3.48,3.48,0,1,0,3.48,3.43A3.49,3.49,0,0,0,821.61,817.19ZM804.1,830a5.72,5.72,0,1,0,5.78,5.69A5.74,5.74,0,0,0,804.1,830Zm-713.76-491a4.48,4.48,0,1,0,4.44,4.49A4.46,4.46,0,0,0,90.34,339.06Zm8.16-11.62a5.52,5.52,0,0,0-.06-11,5.52,5.52,0,0,0,.06,11Zm9.17-21.19a5.51,5.51,0,1,0-.06-11,5.51,5.51,0,1,0,.06,11ZM85.3,311a5.38,5.38,0,1,0,0-10.75,5.18,5.18,0,0,0-4,2.08A15.55,15.55,0,0,0,80,306,5.34,5.34,0,0,0,85.3,311ZM479.8,703a5.93,5.93,0,1,0,6,5.91A5.94,5.94,0,0,0,479.8,703Zm-22.44,72.06a6.32,6.32,0,1,0,6.34,6.29A6.32,6.32,0,0,0,457.36,775.09Zm22.44-52.42a5.93,5.93,0,1,0,6,5.91A5.94,5.94,0,0,0,479.8,722.67Z"/><path class="cls-2" d="M524,627.68c-73.36,0-133.06-59.7-133.06-133.07s59.69-133,133.06-133,133,59.69,133,133.05S597.31,627.68,524,627.68Z"/><path class="cls-3" d="M524,365.41a129.35,129.35,0,0,1,129.2,129.2c0,71.25-57.95,129.22-129.2,129.22s-129.21-58-129.21-129.22,58-129.2,129.21-129.2m0-7.7a136.91,136.91,0,1,0,136.9,136.9A136.91,136.91,0,0,0,524,357.71Z"/><circle class="cls-3" cx="562.49" cy="416.42" r="10.2"/><circle class="cls-3" cx="441.91" cy="499.43" r="10.2"/><circle class="cls-3" cx="565.31" cy="443.84" r="8.84"/><path class="cls-3" d="M574.11,552.18a10.2,10.2,0,1,1-10.18,10.2A10.2,10.2,0,0,1,574.11,552.18Z"/><circle class="cls-3" cx="455.52" cy="461.69" r="8.83"/><circle class="cls-3" cx="464.23" cy="483.34" r="8.84"/><circle class="cls-3" cx="534.61" cy="569.48" r="8.84"/><circle class="cls-3" cx="548.93" cy="551.14" r="8.83" transform="translate(-83.02 1004.7) rotate(-80.78)"/><circle class="cls-3" cx="588.46" cy="447.03" r="8.84"/><circle class="cls-3" cx="569.56" cy="503.56" r="5.56"/><path class="cls-3" d="M515.93,548a7.51,7.51,0,1,1-7.49,7.51A7.5,7.5,0,0,1,515.93,548Z"/><circle class="cls-3" cx="530.23" cy="537.11" r="7.5"/><circle class="cls-3" cx="604.07" cy="477.37" r="7.5"/><path class="cls-3" d="M585.65,462.72a7.5,7.5,0,1,1-7.5,7.5A7.52,7.52,0,0,1,585.65,462.72Z"/><path class="cls-3" d="M562.51,459.55a7.5,7.5,0,1,1-7.5,7.5A7.52,7.52,0,0,1,562.51,459.55Z"/><circle class="cls-3" cx="477.02" cy="452.43" r="7.5"/><circle class="cls-3" cx="485.76" cy="474.17" r="7.5"/><circle class="cls-3" cx="473.88" cy="432.95" r="7.5"/><circle class="cls-3" cx="500.5" cy="568" r="7.5"/><circle class="cls-3" cx="517.43" cy="521.83" r="6.42"/><circle class="cls-3" cx="493.4" cy="429.33" r="6.42"/><circle class="cls-3" cx="503.07" cy="540.29" r="6.42"/><path class="cls-3" d="M496.55,442.59a6.43,6.43,0,1,1-6.41,6.43A6.44,6.44,0,0,1,496.55,442.59Z"/><circle class="cls-3" cx="487.73" cy="552.7" r="6.42"/><circle class="cls-3" cx="505.33" cy="470.61" r="6.43"/><circle class="cls-3" cx="555.72" cy="485.76" r="6.42"/><circle class="cls-3" cx="597.34" cy="496.07" r="6.42"/><circle class="cls-3" cx="578.83" cy="488.94" r="6.42"/><circle class="cls-3" cx="588.17" cy="510.58" r="5.57"/><path class="cls-3" d="M480.07,532.13a5.57,5.57,0,1,1-5.58,5.56A5.55,5.55,0,0,1,480.07,532.13Z"/><circle class="cls-3" cx="546.5" cy="500.03" r="5.57"/><circle class="cls-3" cx="522.24" cy="471.53" r="5.57"/><path class="cls-3" d="M513.48,444.32a5.57,5.57,0,1,1-5.55,5.55A5.57,5.57,0,0,1,513.48,444.32Z"/><circle class="cls-3" cx="510.28" cy="430.3" r="5.57"/><circle class="cls-3" cx="495.38" cy="525.17" r="5.58"/><path class="cls-3" d="M509.68,501.24a5.57,5.57,0,1,1-5.56,5.56A5.58,5.58,0,0,1,509.68,501.24Z"/><path class="cls-3" d="M524.13,429.57a4.73,4.73,0,1,1-4.71,4.73A4.73,4.73,0,0,1,524.13,429.57Z"/><circle class="cls-3" cx="527.31" cy="453.87" r="4.72"/><circle class="cls-3" cx="476.6" cy="523.78" r="4.72"/><circle class="cls-3" cx="506.21" cy="493.12" r="4.73"/><circle class="cls-3" cx="559.28" cy="513.18" r="4.72"/><circle class="cls-3" cx="577.84" cy="520.21" r="4.72"/><circle class="cls-3" cx="536.11" cy="475.48" r="4.72"/><circle class="cls-3" cx="491.89" cy="511.65" r="4.73"/><circle class="cls-3" cx="536.16" cy="510.01" r="4.73"/><circle class="cls-3" cx="534.85" cy="440.2" r="4.09"/><circle class="cls-3" cx="537.95" cy="459.73" r="4.09"/><path class="cls-3" d="M548.89,515.4a4.1,4.1,0,1,1-4.09,4.09A4.08,4.08,0,0,1,548.89,515.4Z"/><circle class="cls-3" cx="567.32" cy="526.57" r="4.09"/><circle class="cls-3" cx="491.65" cy="499.06" r="4.09"/><path class="cls-3" d="M476.36,507.49a4.09,4.09,0,1,1-4.08,4.1A4.1,4.1,0,0,1,476.36,507.49Z"/><circle class="cls-3" cx="542.49" cy="447.24" r="3.52"/><circle class="cls-3" cx="476.31" cy="500.52" r="3.52"/><path class="cls-3" d="M557.45,526.22a3.53,3.53,0,1,1-3.51,3.51A3.54,3.54,0,0,1,557.45,526.22Z"/></svg>